<?xml version="1.0" standalone="no"?>
<!DOCTYPE svg PUBLIC "-//W3C//DTD SVG 20010904//EN"
 "http://www.w3.org/TR/2001/REC-SVG-20010904/DTD/svg10.dtd">
<svg version="1.0" xmlns="http://www.w3.org/2000/svg"
 width="1135.000000pt" height="1280.000000pt" viewBox="0 0 1135.000000 1280.000000"
 preserveAspectRatio="xMidYMid meet">
<metadata>
Created by potrace 1.16, written by Peter Selinger 2001-2019
</metadata>
<g transform="translate(0.000000,1280.000000) scale(0.100000,-0.100000)"
fill="#000000" stroke="none">
<path d="M0 6400 l0 -6400 5675 0 5675 0 0 6400 0 6400 -5675 0 -5675 0 0
-6400z m3980 5011 c36 -31 90 -76 120 -101 30 -24 57 -49 59 -53 2 -5 31 -37
65 -71 34 -34 84 -100 112 -147 28 -46 74 -122 102 -169 61 -101 149 -289 127
-270 -8 7 -31 44 -51 84 -20 39 -46 82 -58 96 -13 14 -71 89 -130 167 -76 101
-144 177 -233 260 -253 238 -268 253 -253 263 27 17 76 -4 140 -59z m3627 48
c71 -14 124 -55 196 -156 104 -143 140 -185 193 -222 29 -20 73 -55 98 -79 26
-24 63 -50 83 -59 55 -23 155 -18 284 13 129 32 246 37 293 14 31 -16 74 -66
64 -75 -3 -3 -21 10 -41 30 -35 35 -36 35 -118 35 -54 0 -122 -9 -189 -25
-145 -34 -253 -34 -320 0 -27 14 -57 37 -66 50 -9 14 -47 43 -83 64 -70 42
-125 102 -220 244 -88 132 -152 160 -354 159 -169 -1 -229 -12 -332 -62 -108
-53 -197 -123 -246 -195 -81 -117 -94 -177 -68 -297 22 -99 24 -148 6 -148 -8
0 -13 16 -15 43 -1 23 -8 63 -17 87 -48 135 18 307 161 423 77 63 241 143 325
159 74 15 285 13 366 -3z m-1135 -84 c-1 -33 1 -35 43 -46 72 -18 67 -32 -15
-41 -22 -3 -25 -8 -25 -48 -1 -78 -27 -88 -64 -24 l-20 34 -46 -20 c-26 -11
-51 -20 -56 -20 -19 0 -7 28 26 60 l35 34 -35 18 c-19 10 -35 22 -35 27 0 11
36 21 78 21 25 0 42 8 63 32 35 37 53 28 51 -27z m2945 -6 c78 -38 99 -134 44
-203 -16 -20 -60 -89 -96 -152 -57 -97 -67 -123 -69 -165 -1 -45 2 -54 31 -79
68 -61 116 -51 258 50 162 116 231 132 334 80 80 -40 97 -66 109 -172 12 -97
8 -119 -37 -204 -17 -33 -44 -88 -60 -124 -40 -86 -147 -219 -246 -307 -59
-51 -93 -91 -127 -149 -73 -123 -79 -148 -50 -184 l17 -22 160 22 c88 11 188
27 223 35 80 19 120 19 165 0 56 -23 73 -76 43 -133 -38 -71 -286 -285 -476
-410 -198 -130 -251 -173 -333 -272 -85 -103 -99 -135 -101 -225 -4 -214 23
-297 128 -401 59 -57 66 -61 135 -74 59 -11 87 -11 143 -2 66 12 168 54 168
70 0 4 15 16 33 27 50 29 138 116 153 152 8 18 14 61 14 96 0 52 -5 71 -28
108 -34 53 -84 98 -149 135 -26 14 -66 38 -88 53 -55 37 -110 58 -228 86 -55
14 -102 26 -104 29 -3 2 4 9 14 14 23 12 126 -13 244 -59 58 -24 115 -57 183
-109 115 -87 110 -82 159 -138 32 -36 37 -49 37 -90 0 -57 -15 -116 -38 -145
-56 -73 -195 -200 -244 -222 -111 -50 -255 -55 -353 -11 -80 36 -115 73 -159
166 -39 82 -40 89 -44 205 -5 145 8 213 54 278 19 26 34 50 34 54 0 4 14 22
32 40 18 18 27 33 22 33 -6 0 -15 -5 -20 -10 -7 -7 -36 -4 -91 11 -77 21 -82
21 -137 5 -100 -29 -141 -84 -216 -283 -41 -107 -83 -170 -143 -210 -57 -38
-89 -48 -245 -74 -63 -11 -135 -28 -159 -39 -24 -11 -86 -55 -136 -98 -106
-91 -143 -112 -247 -140 -79 -21 -78 -21 -295 7 -49 7 -91 14 -94 17 -23 23
100 23 199 0 164 -39 281 -3 420 129 118 112 139 123 275 140 284 37 355 92
421 327 15 51 33 105 40 119 18 36 75 84 137 115 47 24 59 26 137 21 47 -3
103 -12 126 -19 l40 -14 62 56 c34 31 87 72 117 91 147 92 218 146 375 282
189 165 224 210 196 252 -9 13 -34 30 -56 36 -43 13 -128 2 -310 -41 -97 -22
-194 -25 -230 -7 -53 26 -29 151 48 255 21 28 88 99 149 159 122 119 172 190
257 362 52 106 56 119 56 185 0 84 -18 126 -73 170 -34 27 -47 31 -95 30 -66
0 -104 -18 -205 -93 -118 -87 -233 -114 -302 -71 -51 31 -65 61 -65 132 0 74
21 122 105 241 31 44 61 101 71 132 16 56 16 56 -9 89 -48 63 -127 69 -367 31
-85 -14 -171 -25 -190 -25 -19 0 -73 -14 -120 -30 -111 -39 -178 -39 -367 2
-127 27 -169 32 -298 32 -82 1 -176 -3 -207 -7 -82 -12 -74 7 10 24 109 22
314 16 464 -15 174 -36 249 -33 498 18 88 18 330 43 444 45 63 1 89 -4 123
-20z m-4385 -92 c11 -24 23 -33 43 -35 41 -3 42 -9 6 -29 -36 -21 -38 -29 -11
-63 11 -14 20 -31 20 -37 0 -19 -35 -16 -61 6 -23 19 -24 19 -61 -2 -20 -12
-40 -19 -43 -15 -4 3 -2 22 3 41 10 37 1 57 -25 57 -25 0 -12 21 22 35 19 8
40 25 46 37 12 22 28 38 40 38 3 0 12 -15 21 -33z m2736 1 c-3 -7 -15 -15 -29
-16 -13 -2 -33 -12 -44 -22 -11 -10 -38 -27 -60 -38 -59 -30 -178 -117 -312
-230 -65 -54 -144 -118 -177 -140 -70 -50 -191 -98 -267 -107 -30 -4 -73 -13
-97 -21 -80 -26 -137 -16 -347 60 -169 62 -253 112 -380 224 -33 30 -85 65
-115 79 -30 14 -65 35 -77 46 -32 29 -141 35 -219 12 -174 -50 -371 -264 -420
-454 -30 -120 3 -199 146 -346 129 -134 140 -149 140 -199 -1 -60 -18 -88 -86
-144 -75 -62 -94 -99 -94 -185 0 -87 -9 -127 -26 -120 -11 4 -14 28 -14 98 0
87 2 94 31 136 18 24 56 69 85 100 97 103 91 142 -50 282 -136 135 -171 202
-171 327 0 109 24 161 135 291 153 178 277 249 437 249 58 0 77 -6 157 -45 97
-48 151 -85 261 -178 75 -62 205 -131 330 -173 66 -23 98 -28 185 -28 130 -1
259 18 325 48 28 12 76 44 107 69 32 26 61 47 65 47 4 0 27 17 52 38 25 21 69
54 96 72 28 19 77 57 111 86 83 69 172 129 247 165 69 32 81 35 75 17z m-5315
-467 c70 -28 152 -97 188 -160 15 -25 44 -71 64 -101 l37 -55 -5 -100 c-8
-182 -69 -276 -238 -368 -137 -75 -271 -94 -422 -62 -54 11 -88 27 -154 72
-145 99 -179 155 -190 314 -9 125 32 231 126 333 49 52 125 106 150 106 9 0
39 12 66 26 47 23 57 25 185 21 112 -3 145 -7 193 -26z m5661 -109 c102 -43
165 -93 200 -160 13 -26 31 -60 40 -77 9 -16 16 -41 16 -56 0 -39 -95 -179
-122 -179 -5 0 -31 16 -59 35 -28 19 -63 35 -78 36 -14 0 -20 3 -13 6 6 2 12
11 12 19 0 8 6 14 13 14 7 0 19 6 25 12 7 7 30 18 50 24 20 7 29 12 20 13 -24
1 -22 19 5 43 12 11 16 17 10 13 -7 -3 -13 -1 -13 6 0 8 -5 6 -13 -5 -8 -11
-19 -15 -31 -10 -15 6 -17 14 -12 53 l6 46 -20 -25 c-37 -47 -41 -50 -50 -45
-5 3 -7 19 -3 35 7 40 -3 38 -21 -2 -8 -18 -21 -42 -29 -53 l-16 -20 -15 20
c-15 19 -15 18 -16 -22 0 -24 6 -48 15 -56 13 -13 13 -19 -1 -47 -21 -41 -61
-58 -80 -33 -13 18 -17 31 -15 45 0 4 -6 5 -13 2 -17 -7 -32 34 -18 48 6 6 29
8 52 6 35 -3 39 -2 24 9 -10 7 -28 13 -41 13 -13 0 -23 4 -23 8 0 15 24 32 45
32 11 0 27 5 35 11 11 8 2 9 -35 5 l-50 -6 38 26 c21 14 55 33 75 42 27 11 32
17 19 20 -9 2 -41 -10 -71 -27 l-54 -31 -7 110 c-4 60 -11 110 -17 110 -5 0
-17 -14 -26 -32 -9 -17 -28 -43 -41 -57 l-24 -25 -8 23 c-9 23 -29 20 -29 -4
0 -10 -11 -13 -40 -10 -27 3 -40 0 -40 -8 0 -8 -4 -7 -11 3 -8 13 -12 12 -26
-7 -19 -28 -35 -29 -58 -3 -23 25 -45 26 -45 2 0 -10 -4 -22 -9 -27 -6 -6 -11
-41 -13 -80 l-3 -70 -50 3 c-36 2 -46 0 -35 -8 8 -5 27 -10 42 -10 79 0 75
-30 -4 -31 -66 -1 -64 -3 17 -16 l50 -7 -54 -6 c-33 -3 -56 -10 -59 -18 -3
-11 0 -12 17 -2 12 6 41 10 64 8 33 -3 38 -5 22 -12 -60 -23 -85 -37 -85 -45
0 -5 13 -3 30 5 40 20 92 27 110 14 13 -9 13 -12 -2 -24 -10 -7 -15 -16 -11
-19 3 -4 -2 -9 -11 -13 -9 -3 -16 -12 -16 -19 0 -19 -32 -42 -79 -56 -25 -7
-59 -28 -77 -46 -36 -36 -46 -39 -62 -20 -13 15 9 174 39 272 27 90 65 150
137 213 127 110 218 151 367 162 130 10 153 7 259 -38z m-3388 -68 c-15 -43
-26 -89 -26 -103 0 -27 -17 -27 174 8 l99 18 -29 -21 c-92 -67 -175 -139 -171
-149 2 -7 24 -17 48 -23 41 -11 189 -81 189 -90 0 -4 -86 2 -162 12 -58 7 -57
15 -23 -161 13 -71 23 -130 21 -132 -6 -6 -119 134 -137 170 l-17 32 -12 -44
c-6 -24 -18 -54 -25 -65 -7 -12 -23 -51 -35 -88 -22 -71 -43 -100 -35 -51 14
89 14 190 1 208 -13 18 -16 17 -66 -26 -29 -24 -78 -70 -109 -101 -32 -32 -60
-58 -64 -58 -3 0 23 62 58 137 35 75 62 140 59 145 -7 11 -43 4 -143 -28 -41
-13 -76 -22 -78 -20 -6 6 130 94 178 115 l44 20 -37 15 c-21 9 -47 16 -58 16
-11 0 -37 8 -58 17 -20 9 -50 20 -67 23 -24 4 -8 10 75 28 58 12 135 31 171
43 66 20 68 22 160 134 52 63 95 110 97 105 2 -4 -8 -43 -22 -86z m2059 -11
c-12 -158 -16 -173 -71 -284 -67 -134 -101 -164 -265 -234 -102 -45 -123 -58
-198 -130 -46 -44 -123 -132 -171 -195 -106 -139 -162 -192 -244 -231 -139
-65 -331 -42 -478 58 -29 19 -69 41 -90 49 -21 8 -57 21 -80 30 -58 22 -209
29 -280 15 -80 -17 -171 -65 -211 -111 -39 -46 -77 -148 -77 -206 0 -31 9 -52
39 -93 63 -84 67 -101 46 -189 -23 -100 -23 -190 1 -232 11 -17 39 -45 63 -61
39 -25 54 -29 115 -29 39 0 93 -7 120 -15 27 -8 88 -15 135 -15 74 0 94 4 147
29 67 32 256 155 399 261 191 141 305 185 464 178 104 -4 136 -16 167 -63 22
-34 11 -71 -40 -134 -38 -47 -61 -62 -193 -127 -186 -91 -240 -140 -303 -272
-53 -111 -80 -178 -80 -201 0 -46 82 -74 176 -60 42 6 100 30 199 80 150 76
278 119 361 119 39 0 60 -7 95 -29 74 -49 148 -66 284 -64 138 1 239 23 420
93 61 23 128 49 150 57 62 23 163 28 207 10 54 -23 71 -55 66 -127 -3 -48 -10
-66 -30 -88 -39 -40 -93 -134 -108 -186 -19 -70 -7 -106 60 -178 57 -59 80
-105 80 -153 -1 -29 -35 -100 -75 -155 -42 -57 -47 -116 -15 -165 26 -40 25
-83 -5 -154 -47 -112 -42 -166 22 -249 58 -76 255 -128 395 -103 79 13 267 15
302 2 13 -6 43 -37 66 -70 49 -73 69 -88 140 -101 105 -20 128 -63 86 -157
-23 -48 -31 -56 -87 -83 -33 -16 -79 -32 -101 -35 -48 -8 -153 -68 -168 -94
-12 -24 -91 -74 -156 -100 -64 -25 -204 -44 -256 -36 -24 4 -71 30 -128 71
l-89 64 -99 0 c-89 0 -105 3 -152 28 -81 42 -111 85 -120 174 -4 40 -18 95
-30 122 -29 63 -27 125 5 203 20 50 25 80 25 147 0 81 -1 86 -31 115 -17 17
-52 43 -77 59 -47 27 -48 27 -232 27 -208 0 -208 0 -310 86 -62 52 -111 70
-159 57 -68 -19 -173 -81 -230 -138 -76 -74 -107 -141 -121 -254 -6 -49 -20
-106 -30 -127 -25 -49 -25 -85 1 -155 l21 -57 -21 -146 c-11 -80 -21 -178 -21
-216 0 -63 4 -77 38 -135 20 -35 48 -70 62 -77 14 -7 56 -13 95 -13 64 0 74 3
125 37 30 20 78 56 105 79 28 22 66 44 85 48 94 17 207 98 257 184 23 39 46
115 60 198 14 88 -48 237 -136 325 -70 70 -131 100 -217 107 -80 6 -147 -10
-262 -65 -95 -45 -152 -62 -152 -47 1 11 220 119 270 133 103 29 209 18 289
-31 50 -31 128 -105 161 -153 101 -150 97 -375 -9 -508 -67 -83 -168 -150
-242 -162 -23 -3 -56 -23 -95 -55 -106 -89 -137 -107 -208 -114 -77 -8 -122 7
-174 57 -58 55 -69 89 -67 202 0 55 7 148 15 206 13 102 13 110 -8 180 -29 98
-28 129 8 196 18 33 30 71 30 93 0 145 59 250 190 340 98 66 160 94 215 93 63
0 85 -10 165 -78 91 -77 132 -88 279 -74 64 6 136 8 161 4 55 -8 132 -55 168
-103 24 -32 27 -43 25 -111 -1 -51 -10 -105 -29 -166 -33 -108 -33 -133 -1
-211 14 -32 27 -77 29 -99 9 -78 59 -139 146 -177 36 -16 56 -18 137 -12 l95
7 55 -42 c97 -74 142 -92 223 -92 89 0 152 19 217 69 152 114 217 154 276 168
112 26 169 75 169 145 0 47 -20 62 -102 79 -59 12 -76 25 -151 124 -16 21 -39
41 -52 46 -14 5 -93 6 -182 2 -338 -15 -464 22 -534 160 -24 48 -23 106 6 209
19 65 19 66 -3 131 -29 84 -28 119 4 170 49 78 74 141 74 191 0 46 -3 52 -55
101 -63 61 -75 87 -75 162 0 66 16 107 74 188 85 120 89 155 27 224 -26 28
-36 32 -82 32 -35 0 -78 -11 -138 -34 -338 -135 -413 -156 -557 -156 -82 0
-192 26 -296 70 -40 16 -90 30 -111 30 -57 0 -175 -42 -332 -119 -159 -79
-231 -97 -315 -81 -67 13 -80 24 -80 69 0 33 66 207 115 300 38 75 123 142
276 219 139 70 147 76 177 126 18 28 32 61 32 73 0 35 -32 64 -80 74 -165 31
-307 -18 -515 -179 -44 -34 -109 -84 -145 -112 -84 -64 -264 -155 -338 -171
-47 -9 -77 -9 -167 4 -60 9 -139 19 -175 23 -69 7 -109 25 -151 71 -41 44 -52
84 -45 160 3 38 9 103 12 145 l7 78 -43 70 c-41 69 -43 73 -38 139 10 131 67
211 191 265 78 35 160 48 273 44 110 -3 127 -10 369 -129 134 -66 179 -75 279
-59 136 22 230 88 341 240 110 151 132 176 211 240 44 35 108 76 144 92 134
59 170 81 214 128 85 91 136 227 136 366 0 39 3 74 7 77 17 18 22 1 18 -60z
m1094 -69 c1 -57 -1 -62 -26 -74 l-28 -14 28 -4 c27 -3 28 -4 10 -17 -17 -13
-17 -14 0 -15 18 0 25 -20 6 -20 -5 0 -7 -5 -4 -10 11 -18 -23 -58 -66 -81
-60 -30 -152 -44 -189 -29 -17 7 -30 18 -30 26 0 7 -8 18 -17 23 -15 9 -14 10
10 11 17 0 27 -5 27 -15 0 -38 113 -45 180 -10 33 17 74 70 65 85 -10 16 -25
12 -19 -5 8 -19 -51 -75 -77 -75 -25 0 -25 34 1 60 11 11 20 26 20 34 0 8 11
17 24 20 17 4 25 14 29 38 5 39 0 58 -18 58 -7 0 -15 7 -19 15 -10 27 -50 18
-64 -15 -16 -35 -32 -39 -39 -10 -4 13 -14 20 -30 20 -16 0 -27 -7 -30 -20 -3
-11 -9 -20 -13 -20 -12 0 -20 -40 -14 -70 5 -22 11 -27 32 -26 15 1 33 -7 40
-16 7 -10 20 -18 28 -18 20 0 19 -56 -2 -64 -47 -18 -88 9 -78 52 4 21 3 23
-5 11 -7 -11 -20 -14 -41 -11 -34 5 -39 16 -12 27 15 6 14 8 -5 16 -20 7 -23
16 -23 62 0 30 3 69 6 86 l7 32 28 -27 c20 -19 32 -24 41 -17 19 14 106 33
161 35 45 2 51 5 70 40 21 35 22 36 29 15 3 -12 6 -49 7 -83z m-1745 0 c9 -3
14 -9 11 -14 -2 -4 6 -5 18 -3 12 2 35 -1 51 -6 24 -10 26 -14 16 -26 -7 -9
-11 -17 -9 -18 40 -31 73 -48 84 -43 9 3 19 -9 31 -40 28 -74 5 -249 -33 -249
-6 0 -15 -4 -20 -9 -5 -5 -3 -6 5 -2 18 11 14 -5 -5 -20 -21 -16 -37 -18 -28
-5 3 5 1 12 -4 15 -4 3 -8 -4 -7 -17 1 -18 -7 -24 -44 -34 -95 -24 -178 -11
-103 18 15 5 23 15 20 23 -3 7 0 19 6 26 9 10 9 11 0 6 -6 -3 -14 -2 -18 4
-11 17 -28 11 -22 -9 9 -37 -8 -42 -43 -11 -18 16 -34 30 -35 30 -1 0 -1 -11
0 -24 2 -14 -3 -27 -12 -30 -9 -4 -12 -13 -8 -25 5 -17 2 -18 -37 -10 -24 4
-49 8 -56 9 -7 0 -11 4 -8 9 4 5 -2 7 -12 4 -20 -5 -72 32 -72 52 0 7 7 15 15
19 8 3 15 1 15 -4 0 -6 7 -10 16 -10 10 0 14 7 12 18 -2 9 -10 16 -16 15 -7
-2 -12 1 -12 6 0 6 -17 11 -37 13 -31 3 -38 8 -45 33 -18 60 6 157 50 207 12
15 18 16 31 5 14 -10 14 -10 3 5 -11 14 -9 19 15 36 50 35 104 52 169 52 36 0
64 -4 64 -10 0 -5 7 -10 15 -10 8 0 15 7 15 15 0 17 2 18 24 9z m3149 -95 c33
-9 37 -13 32 -32 -10 -31 -59 -92 -76 -92 -8 -1 -13 -6 -12 -12 6 -28 -144
-136 -345 -250 l-42 -25 -77 42 c-43 23 -141 67 -218 97 -197 77 -181 61 -140
143 19 39 36 73 36 77 2 22 26 33 75 33 51 0 54 -1 54 -25 0 -16 -11 -36 -27
-51 -27 -23 -28 -24 -9 -39 27 -21 72 -19 122 6 39 18 42 22 31 40 -6 10 -20
22 -29 25 -11 3 -18 15 -18 30 0 33 32 44 131 44 90 0 98 -9 54 -62 -32 -38
-32 -44 9 -58 30 -10 120 -11 110 -1 -2 2 3 13 12 23 16 17 15 19 -8 41 -13
13 -27 32 -30 42 -5 19 1 20 161 17 91 -2 183 -8 204 -13z m61 -56 c-48 -83
-168 -190 -325 -289 -79 -49 -160 -96 -179 -104 -19 -8 -62 -29 -95 -48 -57
-32 -269 -132 -290 -137 -5 -1 -23 -8 -40 -14 -74 -31 -214 -71 -375 -109
-229 -53 -282 -62 -366 -62 -38 0 -109 -6 -159 -14 -201 -32 -709 -28 -955 7
-76 11 -85 14 -88 35 -4 27 1 27 52 2 128 -61 674 -62 1292 0 51 4 100 13 110
19 11 5 82 24 159 41 85 19 185 51 255 80 63 26 131 51 150 55 45 10 420 197
530 265 149 92 241 176 315 288 37 57 44 46 9 -15z m-929 -5 c-16 -52 -116
-186 -168 -226 -218 -164 -398 -215 -687 -195 -148 10 -174 17 -269 72 -49 29
-57 39 -43 53 9 9 19 5 44 -20 74 -71 185 -94 403 -86 231 9 352 51 513 176
82 64 123 109 168 186 39 65 50 77 39 40z m-508 -96 c20 -25 0 -38 -94 -56
-49 -10 -97 -20 -108 -22 -107 -28 -165 -41 -165 -36 0 9 42 72 48 73 4 0 39
2 79 3 59 2 83 8 130 33 60 32 88 33 110 5z m574 -110 c105 -39 239 -104 293
-141 l30 -20 -168 -80 c-92 -45 -173 -81 -180 -81 -8 0 -63 -20 -122 -44 -60
-24 -122 -46 -139 -50 -16 -4 -37 -9 -47 -12 -12 -4 -35 23 -87 101 -39 58
-71 112 -71 119 0 7 32 30 72 51 99 51 223 140 254 181 20 26 30 32 43 24 10
-5 64 -26 122 -48z m-4967 -90 c28 -27 89 -68 135 -92 l84 -44 -6 -85 c-7
-101 -63 -333 -102 -420 l-27 -60 -28 14 c-24 12 -30 12 -58 -5 -26 -16 -32
-26 -32 -55 0 -28 5 -38 25 -47 l25 -11 -37 -68 c-36 -67 -37 -68 -55 -49 -23
24 -46 25 -76 4 -37 -26 -46 -52 -27 -81 14 -21 22 -24 51 -20 l34 6 -36 -57
c-69 -109 -145 -200 -262 -313 -159 -155 -184 -173 -225 -165 -17 4 -69 29
-113 56 -45 28 -86 50 -92 50 -20 0 -20 28 -1 85 35 106 19 120 -65 60 -27
-19 -57 -35 -66 -35 -52 0 -230 144 -230 187 0 43 142 368 201 459 l40 61 53
2 c30 0 66 5 81 11 37 14 130 105 149 145 20 42 21 99 1 115 -8 7 -15 18 -15
24 0 18 165 148 248 194 256 145 299 165 371 181 2 1 27 -21 55 -47z m5917 31
c-19 -36 -187 -163 -404 -307 -142 -94 -293 -169 -517 -257 -109 -43 -598
-165 -731 -183 -143 -19 -464 -36 -674 -36 -203 -1 -549 40 -577 68 -20 20 20
26 60 8 51 -22 125 -38 197 -42 243 -15 362 -16 595 -5 256 11 479 36 585 66
28 7 73 18 100 23 71 14 432 124 545 167 218 82 442 220 714 440 91 74 126 92
107 58z m-2132 -109 c41 -24 58 -40 53 -48 -87 -112 -119 -156 -171 -233 -57
-86 -81 -114 -68 -78 4 8 2 17 -4 21 -6 3 -13 -3 -16 -14 -6 -26 -40 -32 -177
-32 -122 0 -281 20 -366 46 l-55 16 40 35 c103 90 256 176 478 269 176 73 191
74 286 18z m2038 -22 c-10 -10 -17 -22 -17 -27 0 -38 -143 -260 -161 -249 -5
3 -7 -1 -4 -8 7 -17 -83 -120 -97 -112 -7 4 -8 2 -4 -4 4 -7 -13 -26 -41 -47
-38 -28 -54 -34 -78 -30 -16 3 -32 10 -35 16 -4 5 -18 13 -33 17 l-26 7 43 85
c36 70 52 90 95 120 28 19 117 80 196 134 80 54 148 103 151 107 3 5 10 9 16
9 6 0 4 -8 -5 -18z m-1367 -25 c0 -7 23 -47 51 -87 51 -74 83 -130 77 -134
-17 -11 -238 -56 -277 -56 -27 0 -62 -5 -76 -10 -15 -6 -66 -12 -114 -14 -47
-3 -93 -7 -102 -11 -10 -4 -24 1 -35 13 -32 33 -58 35 -89 6 -27 -25 -37 -27
-142 -32 -62 -3 -113 -2 -113 2 0 4 15 28 33 53 22 31 33 40 35 29 4 -20 16
-20 32 -1 10 12 9 16 -8 22 -19 8 -16 15 51 108 73 100 73 100 112 97 122 -8
454 -6 486 4 31 10 36 9 35 -4 0 -8 5 -17 12 -20 9 -2 13 3 12 14 -3 27 -1 34
10 34 6 0 10 -6 10 -13z m674 -173 c43 -42 -5 -106 -79 -106 -55 0 -74 56 -33
99 26 27 88 32 112 7z m-6990 -109 c11 -17 26 -25 46 -25 33 0 40 -19 16 -39
-13 -11 -12 -17 5 -45 18 -30 18 -34 3 -47 -13 -11 -19 -11 -37 0 -19 12 -23
11 -42 -13 -28 -35 -43 -33 -53 6 -5 21 -15 34 -28 36 -44 7 -48 11 -28 33 10
12 31 27 46 35 21 11 28 22 28 43 0 47 19 54 44 16z m7236 8 c0 -5 -17 -39
-38 -78 -29 -54 -43 -71 -62 -73 -37 -6 -88 -48 -124 -106 -26 -41 -32 -59
-28 -89 4 -36 3 -38 -39 -56 -24 -11 -93 -34 -153 -53 -90 -27 -110 -30 -114
-19 -3 8 -15 24 -28 35 -79 71 -99 81 -157 74 l-34 -4 9 39 c12 55 26 77 48
77 66 0 420 125 620 219 90 42 100 46 100 34z m-863 -85 c9 -7 13 -27 11 -57
-3 -44 -4 -46 -45 -59 -73 -23 -116 14 -99 84 12 46 92 66 133 32z m-2713 -22
c-7 -26 -44 -81 -81 -122 -28 -31 -234 -157 -304 -187 -59 -24 -136 -37 -184
-30 -68 9 -54 18 28 19 86 1 137 19 277 99 109 62 182 132 220 209 14 31 26
43 36 39 10 -3 12 -13 8 -27z m2105 -47 c29 -18 33 -24 27 -51 -10 -49 -33
-68 -83 -68 -47 0 -83 25 -83 59 0 26 56 81 83 81 12 0 37 -9 56 -21z m-560
-4 c39 -19 45 -41 24 -84 -16 -31 -23 -36 -57 -39 -82 -7 -108 20 -81 84 22
53 62 66 114 39z m2111 -77 c11 -18 20 -42 20 -53 0 -36 -38 -84 -92 -114 -44
-26 -64 -31 -118 -31 -80 0 -114 16 -118 53 -5 39 36 89 111 137 54 34 70 40
120 40 54 0 58 -2 77 -32z m-861 -55 c-2 -41 -27 -83 -68 -114 -47 -36 -98
-112 -108 -160 l-5 -29 -199 0 c-109 0 -200 4 -203 9 -4 5 -24 12 -46 16 -34
6 -43 12 -55 42 -12 29 -13 39 -3 52 12 14 11 14 -4 2 -10 -7 -19 -11 -19 -7
-1 3 -2 12 -3 19 -1 6 -8 11 -15 9 -7 -1 -19 3 -27 9 -9 8 -34 9 -72 5 -53 -5
-58 -4 -75 20 -11 14 -16 28 -13 32 4 3 120 12 259 18 242 11 399 30 496 60
25 8 63 14 83 14 20 0 40 5 43 10 10 17 35 11 34 -7z m-3649 -63 c85 -29 157
-54 159 -56 27 -25 -107 9 -254 64 -108 40 -181 36 -257 -14 -48 -31 -74 -82
-82 -164 -11 -106 -16 -121 -58 -166 l-41 -44 -71 1 c-65 1 -68 2 -36 11 131
37 142 49 165 189 19 122 50 173 125 212 78 41 148 34 350 -33z m1857 10 c100
-33 111 -44 169 -170 28 -61 35 -88 37 -150 4 -98 20 -126 111 -196 101 -77
120 -113 114 -213 -5 -72 -31 -151 -50 -151 -19 0 -19 33 2 92 27 75 29 137 7
171 -9 14 -44 41 -79 60 -109 61 -128 95 -128 227 0 60 -6 88 -30 144 -39 92
-77 130 -159 158 -74 25 -230 32 -267 11 -47 -27 -230 -55 -389 -59 -181 -6
-245 -17 -272 -46 -35 -39 -226 -190 -282 -223 -89 -52 -151 -66 -282 -63 -96
3 -114 6 -117 19 -3 15 13 16 140 15 139 -1 145 0 202 28 67 33 140 89 241
186 94 90 79 86 465 119 63 5 147 20 185 32 156 48 259 51 382 9z m468 -10
c83 -12 198 -22 257 -25 l108 -4 31 -35 31 -36 -33 -27 c-46 -39 -86 -63 -107
-63 -30 0 -326 125 -398 168 -38 23 -62 42 -54 42 8 0 83 -9 165 -20z m1496
-90 c26 -15 52 -68 45 -95 -7 -29 -57 -67 -121 -91 -98 -37 -233 -17 -250 37
-16 49 46 119 129 145 50 15 170 18 197 4z m-925 -91 c61 -16 114 -66 114
-108 0 -18 -4 -41 -10 -51 -22 -41 -125 -51 -240 -24 -104 24 -176 112 -125
154 45 37 171 51 261 29z m-2713 -185 c3 -3 3 -12 0 -20 -4 -10 -24 -14 -75
-14 -39 0 -111 -9 -160 -21 -79 -19 -96 -27 -150 -72 -88 -75 -86 -74 -168
-91 -86 -18 -125 -49 -135 -108 -10 -53 18 -78 88 -78 56 1 141 19 197 43 56
24 262 67 322 67 82 0 144 -22 181 -65 27 -30 46 -40 122 -60 60 -17 116 -25
169 -25 69 0 85 -4 132 -30 66 -38 73 -58 83 -223 5 -92 11 -129 25 -150 14
-21 17 -41 14 -91 -8 -129 -145 -348 -273 -436 -54 -37 -76 -72 -115 -184 -47
-132 -88 -192 -168 -248 -39 -27 -46 -29 -59 -16 -13 13 -7 21 50 61 78 56 97
84 131 202 l27 90 118 115 c112 110 120 120 169 224 29 60 52 115 52 122 0 7
7 34 16 60 14 43 14 50 -5 112 -15 50 -19 91 -18 162 2 86 0 98 -21 124 -39
51 -57 57 -200 71 -162 15 -229 38 -298 98 l-48 42 -105 -1 c-95 -1 -120 -5
-241 -43 -164 -51 -261 -68 -315 -55 -35 8 -42 15 -53 49 -29 87 17 159 120
191 39 11 87 37 125 65 76 58 176 99 268 110 39 5 90 12 115 18 57 11 75 12
83 5z m-2923 -168 c36 -29 84 -63 108 -75 46 -23 48 -27 27 -54 -12 -17 -18
-18 -52 -7 -44 15 -106 56 -158 104 -37 35 -37 35 -18 60 10 14 20 26 23 26 3
0 35 -24 70 -54z m-68 -128 c69 -25 115 -77 97 -110 -11 -21 -19 -22 -71 -6
-37 11 -138 90 -138 107 0 7 35 28 49 30 2 1 31 -9 63 -21z m-109 -116 c35
-14 118 -105 115 -126 -5 -37 -49 -31 -109 13 -30 22 -64 47 -76 56 -25 17
-31 50 -10 58 18 8 59 7 80 -1z m734 -143 c41 -38 153 -99 181 -99 15 0 16
-22 1 -37 -19 -19 -134 21 -194 66 -57 43 -74 73 -55 96 17 20 17 20 67 -26z
m2088 -30 c28 -28 59 -56 70 -62 12 -7 102 -13 232 -17 l211 -5 39 -31 c75
-61 48 -128 -72 -173 -108 -41 -170 -79 -193 -120 -29 -51 -28 -90 3 -132 33
-45 75 -130 75 -152 0 -52 -79 -134 -153 -161 -26 -9 -67 -23 -92 -32 -54 -19
-90 -59 -100 -111 -9 -52 -46 -97 -100 -123 -38 -19 -72 -24 -188 -30 -124 -6
-154 -11 -237 -40 -114 -39 -138 -51 -213 -103 -71 -50 -127 -123 -127 -166 0
-80 58 -141 134 -141 21 0 74 7 117 16 67 13 85 14 131 2 46 -12 72 -11 198 4
254 31 279 32 350 14 72 -19 121 -53 162 -113 39 -58 70 -68 146 -49 116 31
118 30 230 -103 43 -50 44 -51 101 -51 44 0 73 8 130 35 84 41 77 39 84 21 7
-18 -86 -64 -158 -77 -84 -15 -124 0 -182 68 -92 109 -111 119 -170 96 -17 -7
-56 -14 -87 -15 -49 -2 -59 1 -86 27 -17 17 -41 45 -52 63 -23 38 -99 80 -161
88 -23 3 -85 1 -137 -6 -215 -25 -314 -31 -381 -20 -53 9 -78 8 -133 -4 -101
-24 -140 -21 -191 14 -24 17 -51 40 -60 52 -33 49 -10 133 55 198 46 45 162
123 222 149 85 36 250 71 338 71 46 0 101 5 123 12 57 17 103 65 118 121 15
61 78 119 147 137 64 16 139 58 163 91 27 39 26 119 -2 145 -34 31 -79 116
-79 152 0 55 63 112 201 182 65 33 123 69 129 79 14 27 -21 68 -71 81 -23 6
-114 12 -202 13 -152 2 -166 4 -217 28 -30 14 -73 42 -94 63 -58 53 -79 50
-264 -43 -168 -84 -252 -115 -347 -126 -33 -4 -78 -15 -100 -25 -154 -70 -365
-108 -449 -80 -39 12 -51 36 -13 27 57 -15 158 -19 206 -8 29 6 103 31 165 55
73 28 147 49 216 60 116 18 190 48 292 117 85 58 162 88 223 89 48 0 54 -3
100 -51z m-2092 -130 c63 -24 95 -53 99 -89 3 -22 -1 -25 -27 -24 -44 2 -143
51 -162 81 -16 24 -16 26 2 39 24 18 23 18 88 -7z m5207 -32 c0 -6 -20 -19
-44 -28 -68 -24 -209 -119 -247 -166 -67 -83 -75 -108 -69 -206 5 -76 10 -91
31 -113 29 -29 102 -43 224 -45 44 -1 91 -4 105 -8 l25 -7 -30 -7 c-43 -9
-224 -1 -266 12 -84 26 -149 96 -149 161 0 20 6 57 13 82 16 53 108 192 140
212 55 33 166 92 202 107 50 21 65 22 65 6z m-4632 -29 c-3 -7 -28 -15 -56
-18 -69 -7 -125 -49 -184 -135 -60 -90 -188 -211 -256 -242 -65 -30 -149 -42
-300 -43 -107 0 -117 -2 -185 -33 -85 -40 -130 -75 -147 -116 -11 -26 -9 -36
10 -76 34 -71 25 -132 -29 -193 -23 -26 -51 -66 -63 -89 l-22 -43 20 -27 c48
-64 110 -83 268 -83 111 0 136 -12 136 -68 0 -77 -41 -135 -223 -321 -223
-227 -265 -288 -286 -420 -18 -114 33 -218 121 -242 54 -14 79 -6 141 42 64
50 114 122 157 226 99 239 158 324 257 373 95 46 152 107 236 245 19 33 67 90
105 127 55 54 79 70 125 83 56 16 58 16 103 -7 86 -43 131 -138 100 -213 -9
-20 -16 -45 -16 -54 0 -8 -16 -42 -37 -75 -44 -71 -46 -106 -9 -145 32 -33 85
-51 150 -51 57 0 94 18 155 75 93 86 113 95 215 95 107 -1 124 -8 171 -75 26
-36 35 -59 35 -90 0 -43 26 -77 78 -104 40 -21 144 -23 282 -7 105 12 164 13
265 6 141 -10 179 -17 240 -46 115 -54 220 -249 232 -430 7 -95 -3 -131 -58
-218 -47 -75 -73 -95 -213 -166 -61 -31 -118 -67 -129 -82 -14 -18 -23 -55
-31 -121 -6 -53 -14 -99 -18 -103 -5 -4 -8 -22 -8 -40 0 -40 -77 -196 -131
-265 -50 -63 -63 -104 -54 -179 5 -47 3 -65 -13 -96 -43 -83 -109 -123 -202
-124 -64 0 -255 107 -331 185 -22 22 -38 28 -90 32 -94 8 -194 -11 -382 -73
-182 -60 -199 -61 -283 -25 -70 31 -174 141 -174 184 0 9 -16 31 -35 51 -31
32 -40 36 -87 36 -29 0 -82 -9 -116 -20 -86 -27 -133 -26 -165 4 -51 47 -60
81 -67 236 -9 183 -17 203 -97 244 -75 38 -157 4 -193 -78 -32 -72 -8 -195 64
-329 26 -48 34 -118 18 -145 -5 -6 -62 -33 -127 -60 -130 -52 -158 -76 -148
-126 4 -21 23 -39 77 -73 90 -58 105 -77 106 -131 0 -59 -22 -107 -79 -167
-41 -43 -50 -60 -56 -103 -9 -66 8 -100 59 -120 44 -17 59 -14 221 54 96 41
113 42 325 35 91 -3 128 9 256 84 153 90 209 108 334 107 131 -2 187 -15 233
-53 53 -44 68 -102 60 -238 -5 -97 -3 -115 19 -187 14 -43 32 -122 40 -174 9
-52 25 -119 38 -147 20 -47 30 -57 99 -96 104 -60 152 -77 214 -77 132 0 281
69 457 210 191 154 274 188 384 156 142 -42 204 -163 184 -359 -5 -51 -8 -131
-6 -178 8 -185 108 -294 328 -359 136 -40 179 -85 194 -209 9 -71 26 -101 75
-135 77 -54 121 -138 121 -233 0 -60 -18 -96 -92 -182 -53 -62 -78 -82 -151
-120 l-89 -46 -146 0 c-126 1 -156 4 -211 23 -41 15 -90 24 -140 25 -72 2 -79
0 -136 -35 -93 -56 -173 -79 -315 -89 -195 -13 -302 -38 -435 -100 -185 -87
-294 -188 -372 -345 -44 -88 -45 -94 -38 -154 12 -100 72 -153 212 -186 38 -9
84 -13 103 -10 93 15 140 29 224 68 81 38 99 43 161 42 48 0 83 -6 110 -19 49
-24 169 -146 197 -200 12 -22 48 -67 82 -101 52 -52 70 -63 114 -73 74 -16
111 -14 183 9 103 32 225 126 336 261 62 75 81 91 147 124 103 51 152 113 182
230 26 97 131 391 162 450 45 88 62 110 116 151 l48 36 77 -7 c163 -16 229 -3
297 61 87 81 173 144 198 144 7 0 27 7 42 15 61 32 199 13 306 -41 44 -22 57
-24 190 -22 133 3 148 1 221 -25 89 -31 114 -33 194 -12 83 22 186 30 209 17
15 -9 5 -11 -51 -12 -38 0 -110 -9 -159 -20 -118 -26 -132 -25 -223 11 -68 27
-85 30 -133 24 -30 -5 -89 -8 -130 -8 -65 -1 -86 4 -165 37 -109 47 -174 54
-258 31 -80 -22 -124 -51 -182 -119 -86 -102 -159 -127 -305 -106 -105 15
-140 6 -192 -48 -65 -68 -114 -173 -195 -418 -42 -130 -90 -256 -105 -280 -31
-50 -97 -101 -161 -125 -31 -12 -54 -32 -90 -80 -27 -35 -66 -85 -87 -111 -83
-98 -293 -208 -398 -208 -97 0 -209 78 -295 205 -109 161 -168 205 -275 205
-50 0 -80 -8 -157 -41 -260 -111 -467 -83 -566 77 -30 50 -23 144 18 223 145
280 418 441 798 471 184 14 283 42 367 102 53 37 164 37 328 -2 226 -54 323
-35 466 87 82 70 123 139 131 218 8 79 -15 133 -85 195 -31 27 -59 50 -64 50
-17 0 -38 62 -38 112 0 30 -7 68 -18 88 -22 45 -96 94 -164 110 -104 25 -161
52 -216 104 -120 113 -149 222 -131 483 9 133 9 144 -10 181 -26 51 -99 115
-149 130 -31 10 -50 9 -97 -3 -81 -21 -119 -45 -269 -163 -146 -115 -239 -165
-348 -188 -110 -24 -192 -14 -292 34 -152 73 -183 116 -197 281 -12 130 -22
167 -55 216 -24 36 -25 41 -15 106 29 185 6 256 -94 298 -51 20 -77 24 -165
24 -122 1 -155 -10 -308 -96 -155 -88 -196 -98 -376 -95 -166 3 -189 -2 -304
-71 -71 -42 -127 -54 -163 -35 -38 19 -79 82 -79 119 0 47 44 130 93 177 50
47 63 80 53 133 -9 49 -40 78 -116 109 -36 15 -68 33 -72 39 -4 7 -8 34 -8 61
0 69 41 107 142 131 40 10 82 22 93 28 33 16 65 49 65 67 0 9 -23 63 -51 121
-53 108 -70 192 -55 271 9 49 59 121 100 143 31 17 40 17 89 6 74 -16 117 -47
145 -101 19 -38 22 -61 22 -155 1 -248 34 -282 219 -234 103 27 146 22 196
-23 20 -17 51 -58 70 -93 63 -113 109 -145 215 -153 57 -4 81 1 185 36 66 22
167 50 224 62 171 37 244 20 354 -80 31 -28 86 -66 122 -85 90 -47 153 -48
225 -4 72 44 84 73 76 180 l-7 87 35 43 c88 110 155 233 156 287 0 13 5 32 10
42 6 10 14 60 19 110 15 141 39 168 213 244 136 60 188 123 209 257 17 113 0
194 -75 352 -54 115 -100 146 -271 182 -91 19 -169 19 -403 -1 l-192 -17 -57
29 c-62 32 -74 49 -98 138 -22 81 -55 112 -129 121 -90 12 -161 -16 -254 -96
-70 -61 -104 -73 -193 -66 -99 8 -143 26 -165 68 -27 53 -20 95 31 202 51 107
61 176 31 221 -16 26 -73 56 -105 56 -70 0 -190 -105 -271 -237 -75 -122 -127
-175 -214 -217 -40 -19 -86 -47 -102 -63 -37 -38 -109 -177 -163 -313 -49
-126 -108 -206 -183 -250 -46 -27 -60 -30 -112 -27 -56 3 -61 6 -107 54 -77
81 -87 168 -34 309 37 98 100 179 276 354 161 161 199 213 199 274 0 55 -25
66 -147 66 -141 0 -195 13 -233 56 -52 60 -37 125 50 219 58 63 63 101 23 173
-19 35 -24 55 -20 75 13 48 66 96 156 139 l86 42 160 3 c178 3 243 17 311 64
52 36 140 133 192 214 60 93 137 144 220 145 31 0 42 -4 40 -12z m-685 -63
c55 -27 109 -82 105 -107 -3 -20 -10 -24 -71 -30 -57 -7 -74 -5 -106 11 -23
12 -43 32 -51 50 -11 27 -9 34 10 61 25 35 62 40 113 15z m4287 -35 c35 -6 91
-20 125 -30 33 -10 85 -25 115 -34 30 -8 64 -22 75 -31 20 -16 19 -16 -5 -12
-14 3 -78 19 -143 36 -304 79 -579 61 -817 -55 -78 -38 -109 -61 -170 -124
-72 -73 -77 -76 -98 -62 -30 20 -56 8 -48 -21 4 -17 -2 -28 -25 -47 -25 -21
-29 -30 -24 -52 4 -15 16 -30 27 -34 11 -3 26 -21 34 -40 8 -20 41 -55 79 -85
36 -28 65 -55 65 -60 0 -5 -18 -9 -41 -9 -36 0 -46 6 -95 56 l-53 56 -32 -66
c-17 -36 -35 -66 -40 -66 -12 0 -29 35 -29 60 0 25 -25 37 -44 21 -7 -6 -16
-35 -19 -64 -4 -42 -1 -56 14 -73 19 -21 19 -21 -6 -70 -55 -107 -73 -229 -54
-376 11 -86 19 -110 79 -232 44 -91 61 -136 52 -136 -7 0 -12 -6 -9 -12 2 -7
11 -12 19 -10 9 1 27 -11 41 -28 49 -58 217 -197 276 -229 69 -36 87 -55 44
-45 -62 13 -139 60 -204 123 -38 36 -90 84 -116 106 -58 49 -154 178 -199 267
-59 117 -67 168 -61 374 3 99 10 189 15 200 6 10 29 67 52 127 60 151 162 311
269 417 136 134 353 246 521 270 79 11 340 5 430 -10z m-3621 -24 c18 -19 61
-47 95 -61 83 -37 87 -41 74 -70 -6 -13 -17 -26 -25 -30 -41 -15 -160 47 -207
109 l-25 34 20 26 c11 14 24 26 28 26 4 0 22 -15 40 -34z m1251 2 c14 -5 33
-16 42 -25 15 -14 15 -17 2 -30 -22 -23 -12 -37 30 -43 35 -5 40 -9 57 -55 25
-65 24 -86 -6 -145 -45 -88 -100 -139 -178 -161 -24 -7 -28 -5 -23 7 4 11 0
15 -17 12 -12 -2 -21 -9 -19 -16 4 -20 -120 -15 -187 8 -110 37 -127 52 -146
129 -15 62 -15 73 -2 112 26 76 41 103 79 145 34 36 47 43 121 59 45 9 87 19
92 21 16 5 128 -8 155 -18z m2402 -47 c-5 -24 18 -77 46 -104 15 -14 61 -43
102 -65 49 -26 83 -51 97 -73 12 -19 41 -58 65 -88 l43 -54 3 -114 4 -113 -27
0 c-23 0 -25 3 -19 23 25 71 -7 174 -90 296 -43 62 -61 79 -116 109 -36 19
-75 41 -87 48 -29 18 -63 85 -63 124 0 27 3 31 23 28 12 -2 21 -9 19 -17z
m2692 -106 c22 -17 86 -20 86 -5 0 22 68 8 146 -30 88 -43 141 -93 181 -171
l23 -44 -30 -13 c-27 -11 -29 -14 -18 -32 13 -21 18 -23 57 -24 18 -1 27 -10
39 -41 17 -49 19 -149 3 -190 -12 -28 -13 -29 -23 -10 -6 11 -12 21 -13 23 -1
1 -19 -5 -41 -14 -21 -9 -33 -19 -26 -21 6 -3 12 -8 12 -13 0 -8 -371 113
-505 165 -192 74 -280 128 -244 151 16 10 10 24 -11 24 -31 0 -24 21 28 78 30
32 57 52 70 52 12 0 22 -4 22 -10 0 -5 5 -10 10 -10 6 0 10 6 8 13 -4 25 76
95 132 115 67 25 70 25 94 7z m-648 -26 c128 -11 237 -33 309 -63 35 -15 37
-18 23 -32 -14 -15 -23 -13 -99 15 -117 42 -170 53 -274 54 -109 2 -168 -20
-173 -65 -3 -22 5 -33 40 -59 24 -17 59 -38 78 -46 19 -8 71 -32 115 -53 44
-21 130 -62 190 -90 61 -29 142 -65 180 -80 39 -15 113 -46 166 -68 336 -140
682 -231 834 -219 118 10 159 66 93 128 -64 59 -175 137 -248 176 -78 40 -105
69 -53 57 47 -12 225 -104 280 -146 64 -49 133 -137 133 -169 0 -32 -53 -83
-104 -99 -49 -16 -207 -8 -316 15 -74 15 -430 127 -461 144 -21 12 -342 135
-394 151 -22 7 -49 18 -60 25 -12 7 -69 34 -129 60 -112 48 -160 74 -211 111
-16 11 -58 36 -93 54 -105 55 -159 135 -116 171 15 12 107 36 146 38 9 1 74
-4 144 -10z m-5728 -36 c38 -22 43 -28 40 -56 -3 -30 -6 -32 -43 -35 -45 -3
-124 34 -149 70 -13 19 -13 23 7 39 28 24 85 17 145 -18z m3352 -23 c36 0 37
-6 8 -37 l-22 -23 27 -28 c27 -28 35 -52 18 -52 -5 0 -25 7 -44 15 l-36 15
-11 -35 c-14 -43 -43 -48 -39 -7 4 36 -7 52 -37 52 -35 0 -29 24 11 43 28 13
35 22 35 45 0 38 9 45 36 27 13 -8 37 -15 54 -15z m2573 -27 c95 -33 105 -39
92 -52 -12 -13 -22 -13 -57 -3 -197 55 -252 62 -281 33 -14 -14 15 -45 56 -62
18 -7 82 -36 142 -65 345 -163 429 -198 690 -283 182 -60 494 -141 540 -141
35 0 55 15 55 41 0 28 -105 114 -185 150 -41 19 -76 42 -78 52 -3 10 0 17 8
17 28 0 139 -68 225 -139 106 -87 114 -109 50 -135 -142 -56 -541 45 -1050
267 -69 30 -150 65 -180 78 -30 13 -117 54 -194 92 -251 123 -279 159 -151
191 11 3 63 3 115 0 76 -3 117 -12 203 -41z m-6036 -87 c115 -54 101 -142 -17
-101 -62 22 -120 62 -120 83 0 47 57 55 137 18z m4985 -107 c298 -81 382 -188
343 -433 -14 -86 -29 -116 -58 -116 -13 0 -2 77 23 149 27 81 25 107 -11 180
-53 106 -153 166 -366 221 -24 6 -43 15 -43 21 0 6 9 8 19 4 11 -3 52 -15 93
-26z m-3982 -102 c239 -78 304 -86 536 -61 39 4 76 2 98 -6 52 -17 46 -33 -9
-24 -25 3 -96 1 -158 -6 -143 -16 -230 -3 -482 76 -253 78 -295 77 -419 -7
-40 -26 -46 -35 -46 -64 0 -19 12 -65 26 -102 53 -135 31 -238 -83 -390 -81
-108 -113 -176 -120 -254 -5 -48 -9 -59 -23 -59 -25 0 -30 19 -19 73 13 70 30
104 114 217 101 137 128 195 128 280 0 50 -6 79 -27 124 -14 32 -29 77 -32
100 -6 40 -4 44 37 80 119 103 218 108 479 23z m5056 -55 c21 2 290 -94 406
-144 40 -17 148 -57 241 -88 92 -31 170 -60 174 -64 3 -3 -6 -6 -21 -6 -18 0
-26 -4 -23 -12 2 -7 11 -12 21 -10 30 5 17 -17 -22 -37 -63 -32 -146 -52 -224
-53 -85 -1 -118 7 -118 28 0 8 -7 14 -15 14 -8 0 -15 4 -15 8 0 5 -10 14 -22
19 -19 9 -26 7 -43 -14 l-20 -24 -111 55 c-60 31 -123 69 -139 86 -25 26 -27
32 -16 53 10 18 9 28 -2 51 l-15 27 -16 -22 c-15 -22 -17 -22 -32 -7 -10 9
-20 36 -24 60 -4 24 -11 56 -15 72 -7 26 -6 27 12 18 11 -6 28 -10 39 -10z
m-4270 -64 c12 -12 43 -65 69 -116 31 -60 60 -103 82 -120 20 -15 49 -40 67
-55 17 -16 66 -51 108 -78 42 -28 90 -66 107 -84 50 -58 61 -158 32 -305 -1
-3 -6 2 -11 10 -5 8 -10 49 -10 90 0 41 -5 91 -10 111 -14 51 -69 110 -163
176 -129 91 -179 145 -231 256 -31 64 -56 103 -74 114 -15 9 -29 18 -31 19 -1
2 0 7 4 13 8 14 32 1 61 -31z m-401 -278 c4 -13 15 -20 30 -20 35 0 39 -16 8
-38 -28 -20 -28 -21 -10 -50 9 -17 17 -35 17 -41 0 -19 -30 -12 -56 14 -32 32
-39 31 -69 -2 l-24 -28 -1 43 c0 30 -4 42 -14 42 -31 0 -25 20 9 34 25 11 40
26 51 51 12 30 17 34 34 25 10 -5 22 -19 25 -30z m2584 -67 c-33 -53 -67 -101
-116 -161 -67 -83 -82 -138 -84 -299 -1 -76 2 -154 5 -173 6 -29 3 -39 -17
-58 l-24 -23 -7 77 c-11 130 -7 267 9 320 8 28 39 86 69 130 30 43 80 116 112
162 37 55 60 80 67 73 6 -6 2 -22 -14 -48z m-644 18 c-6 -5 -48 -11 -94 -13
l-84 -3 -64 -70 c-59 -63 -123 -165 -123 -197 -1 -24 -57 -103 -81 -114 -66
-31 -173 -74 -185 -74 -31 0 -11 20 34 33 126 38 159 66 214 187 22 47 47 100
56 119 18 36 98 106 147 127 34 15 195 19 180 5z m1679 -263 c22 -7 44 -22 50
-33 6 -11 25 -36 42 -56 43 -50 77 -110 114 -202 32 -81 33 -98 1 -90 -13 3
-26 26 -41 71 -37 114 -127 234 -207 280 -61 33 -118 -13 -173 -141 -22 -52
-42 -83 -53 -85 -21 -4 -23 21 -2 38 8 7 15 20 15 29 0 31 49 121 92 166 40
44 45 47 83 42 22 -3 58 -12 79 -19z m2073 -40 c66 -38 104 -70 120 -102 26
-50 22 -130 -12 -221 -26 -72 -38 -90 -122 -178 -61 -63 -96 -108 -100 -127
-4 -23 -11 -30 -29 -30 l-23 0 27 60 c20 48 42 76 107 135 106 96 139 162 133
265 -4 84 -33 127 -114 166 -116 57 -200 34 -374 -104 -88 -70 -158 -111 -187
-112 -24 0 -13 16 20 32 17 9 70 46 116 83 176 139 341 189 438 133z m-4842
-262 c-12 -121 -2 -151 69 -221 33 -33 88 -75 121 -92 80 -41 266 -103 313
-103 82 0 177 -44 231 -106 71 -80 85 -145 55 -258 -19 -72 -68 -125 -152
-164 -107 -49 -142 -54 -427 -61 -334 -8 -321 -3 -404 -151 -19 -33 -76 -106
-125 -162 -105 -116 -198 -233 -220 -275 -21 -42 -40 -157 -33 -207 3 -22 20
-82 37 -133 35 -107 37 -154 11 -240 -34 -113 -66 -149 -221 -253 -49 -33 -97
-72 -107 -86 -9 -15 -23 -74 -32 -140 -8 -63 -19 -114 -24 -114 -6 0 -8 37 -5
88 8 143 47 210 163 279 136 81 180 137 205 257 14 66 9 110 -26 246 -13 52
-24 121 -24 155 1 114 73 245 217 392 85 87 203 244 203 271 0 18 87 89 124
102 29 9 60 9 134 1 64 -7 159 -8 277 -2 203 9 231 17 323 90 65 52 91 104 92
182 0 110 -108 229 -228 250 -168 30 -214 43 -292 79 -47 23 -113 60 -148 83
-106 70 -145 168 -128 311 11 86 29 70 21 -18z m3582 -3 c73 -3 245 0 383 7
l250 12 47 -23 c72 -36 88 -66 86 -153 -2 -51 3 -87 17 -125 40 -109 66 -121
285 -132 177 -9 228 -19 357 -70 87 -35 169 -103 191 -159 19 -48 15 -111 -13
-198 -30 -95 -76 -171 -118 -196 -38 -21 -114 -23 -215 -5 -33 6 -121 18 -196
29 -87 11 -152 25 -177 38 -73 37 -159 110 -209 177 -83 111 -255 214 -393
235 -139 22 -249 -26 -315 -136 -11 -19 17 -89 54 -134 20 -25 45 -61 57 -81
30 -51 113 -112 224 -166 126 -62 151 -70 292 -93 137 -23 409 -86 445 -104
43 -20 63 -58 62 -119 -1 -102 -48 -169 -156 -224 -104 -53 -173 -62 -545 -67
-181 -2 -213 -5 -275 -25 -118 -39 -196 -106 -240 -206 -115 -259 -209 -335
-456 -370 -88 -12 -113 -21 -238 -83 -173 -86 -241 -102 -341 -77 -99 24 -134
49 -258 185 -80 88 -124 128 -146 133 -46 13 -117 3 -171 -23 -91 -44 -106
-150 -31 -215 19 -16 81 -68 139 -115 134 -109 139 -121 140 -328 1 -135 -2
-157 -31 -265 -37 -136 -53 -340 -33 -413 17 -64 64 -122 105 -129 52 -10 70
0 140 81 56 66 171 264 211 363 18 45 142 225 176 257 45 41 115 88 162 108
70 29 129 30 209 6 95 -29 120 -42 200 -106 37 -30 82 -63 100 -73 54 -32 203
-79 317 -101 196 -38 412 -7 562 81 60 35 101 72 198 176 138 150 149 170 207
382 110 402 169 515 278 535 22 4 48 1 69 -8 30 -12 36 -21 48 -67 24 -94 18
-230 -16 -339 -38 -122 -41 -232 -9 -300 61 -126 87 -222 92 -338 4 -97 1
-122 -17 -181 -27 -87 -79 -172 -160 -261 -62 -70 -80 -82 -206 -134 -33 -13
-87 -36 -120 -50 -41 -17 -79 -26 -118 -26 -75 0 -136 -16 -171 -43 -15 -13
-44 -54 -64 -92 -30 -56 -46 -75 -82 -94 -65 -36 -124 -100 -145 -157 -10 -27
-27 -62 -38 -77 -12 -18 -17 -36 -13 -52 9 -35 60 -90 104 -111 43 -20 72 -21
547 -14 304 5 311 5 365 -17 120 -49 167 -138 126 -237 -12 -29 -27 -39 -122
-79 -183 -76 -194 -78 -508 -86 -292 -7 -319 -12 -355 -55 -32 -38 39 -141
115 -168 116 -41 143 -75 155 -190 10 -102 -3 -168 -42 -213 -46 -52 -148
-114 -209 -125 -29 -6 -76 -25 -104 -43 -51 -32 -51 -32 -196 -34 -80 -2 -187
-5 -239 -9 -94 -7 -155 1 -252 32 -79 25 -89 43 -99 183 -9 116 -20 157 -44
173 -20 14 -106 8 -139 -8 -18 -10 -84 -52 -147 -94 -161 -108 -183 -115 -360
-115 l-146 0 -90 47 c-126 65 -291 89 -381 53 -94 -36 -283 -37 -350 -1 -31
16 -102 88 -150 151 -30 39 -31 45 -34 150 -1 61 1 133 6 161 7 48 5 54 -35
122 -59 99 -79 116 -136 114 -62 -3 -80 -14 -109 -72 -33 -64 -34 -156 -4
-225 11 -26 23 -79 26 -119 5 -61 2 -80 -17 -122 -15 -32 -23 -72 -25 -116 -3
-93 -33 -139 -119 -179 -115 -54 -285 -75 -367 -45 -20 7 -63 33 -95 58 -58
45 -264 256 -264 270 0 14 35 8 60 -9 30 -21 47 -42 80 -102 14 -24 50 -65 80
-89 30 -24 69 -56 87 -72 43 -40 101 -53 193 -45 111 9 227 50 273 95 33 34
37 43 37 88 0 30 11 77 26 118 35 91 35 156 0 262 -47 141 -32 252 43 315 59
49 152 26 229 -56 58 -64 73 -121 72 -287 0 -74 4 -153 9 -174 12 -51 98 -138
169 -173 49 -24 60 -25 150 -20 53 3 117 13 142 22 25 9 90 19 145 22 118 7
207 -12 271 -56 71 -49 130 -66 229 -66 141 1 226 31 321 114 89 78 154 118
207 127 61 10 124 -4 160 -35 l31 -28 6 -130 c6 -149 8 -154 90 -191 66 -30
208 -41 297 -23 39 7 81 8 129 2 101 -13 177 2 241 45 28 20 82 45 120 56 37
11 77 29 89 39 11 10 25 19 31 19 6 0 25 15 41 34 37 42 50 129 33 219 -15 83
-32 102 -135 151 -105 50 -146 90 -146 140 0 43 29 79 88 108 45 22 61 23 332
29 296 7 307 9 430 53 152 55 194 109 156 200 -11 26 -31 41 -97 76 l-83 43
-249 -7 c-138 -4 -273 -12 -300 -18 -113 -24 -321 25 -377 88 -50 57 -50 93 1
195 56 114 74 137 145 174 53 28 61 36 99 109 33 66 48 84 89 109 43 27 57 30
140 32 80 2 98 6 151 32 33 17 81 36 105 43 68 18 99 37 167 103 66 63 143
176 169 249 21 58 29 219 15 299 -6 36 -31 114 -56 175 -63 155 -64 187 -21
363 55 221 48 366 -19 391 -37 14 -40 13 -79 -20 -55 -49 -110 -162 -161 -331
-80 -263 -107 -342 -137 -402 -39 -78 -261 -304 -335 -341 -29 -14 -57 -26
-63 -26 -6 0 -37 -12 -68 -26 -99 -45 -205 -58 -362 -44 -133 13 -188 26 -350
85 -82 31 -106 45 -195 118 -65 54 -111 77 -191 96 -43 10 -61 10 -115 -4
-102 -27 -140 -49 -207 -122 -80 -89 -87 -98 -148 -218 -162 -320 -237 -431
-318 -469 -77 -37 -155 -4 -197 81 -22 44 -24 59 -21 188 3 179 4 191 38 310
24 86 28 119 28 235 1 205 -19 245 -176 356 -42 30 -95 76 -118 102 -39 44
-42 50 -37 94 9 102 86 165 211 175 95 8 122 -8 274 -167 157 -164 177 -175
303 -168 77 5 89 9 223 76 151 76 197 92 264 92 25 0 81 15 135 36 122 47 161
85 237 234 45 88 76 134 132 193 64 68 82 82 143 104 68 25 80 26 385 34 427
10 458 20 593 187 19 24 27 45 27 73 0 77 -56 105 -323 160 -106 22 -214 44
-242 48 -108 19 -339 132 -409 199 -64 62 -162 184 -187 235 -24 47 -20 63 38
134 49 60 110 89 203 97 118 11 196 -6 301 -65 81 -46 185 -134 240 -204 15
-19 118 -111 143 -127 32 -22 129 -50 200 -59 45 -5 123 -18 173 -29 206 -44
257 -22 323 143 42 105 44 175 7 238 -67 114 -234 178 -507 194 -167 9 -215
20 -260 61 -61 55 -73 90 -64 194 6 89 6 89 -22 115 -58 54 -64 55 -270 43
-367 -20 -764 9 -695 51 7 5 36 2 65 -6 28 -8 111 -17 183 -20z m-1082 -10
c-30 -73 -32 -150 -5 -230 27 -78 64 -115 170 -168 110 -55 172 -119 196 -201
16 -56 16 -63 0 -124 -20 -76 -62 -170 -76 -170 -18 0 -11 34 20 99 55 116 50
169 -25 271 -29 39 -54 58 -135 99 -112 58 -150 96 -183 181 -43 114 -30 260
24 260 16 0 19 -4 14 -17z m1567 -28 c8 -9 -163 -170 -201 -190 -20 -10 -72
-20 -125 -25 -97 -8 -175 -33 -235 -74 -41 -28 -163 -56 -243 -56 -58 0 -164
24 -185 42 -23 19 -103 192 -94 201 22 22 46 0 71 -67 44 -116 120 -164 240
-153 55 5 79 14 240 89 72 34 99 41 180 48 92 7 98 9 160 53 36 25 86 66 113
91 44 43 66 54 79 41z m-4671 -42 c6 -16 14 -100 16 -188 6 -160 6 -161 -24
-230 -47 -112 -124 -222 -224 -320 -81 -80 -189 -218 -189 -243 0 -5 -31 -69
-69 -143 -145 -281 -249 -340 -571 -325 -92 4 -169 14 -240 31 -58 14 -150 28
-205 32 -99 5 -151 -5 -259 -52 -14 -6 -18 -5 -14 6 7 23 115 60 207 71 79 10
96 8 211 -16 164 -36 252 -46 380 -47 126 -1 181 14 253 68 29 22 69 52 90 67
30 22 51 55 99 154 85 175 183 317 304 442 180 186 232 319 213 545 -11 136
-11 175 1 175 6 0 15 -12 21 -27z m2139 -222 c-6 -25 -29 -93 -51 -151 -26
-66 -41 -122 -41 -150 0 -43 3 -46 110 -150 108 -104 110 -106 135 -186 14
-44 35 -143 48 -220 66 -420 91 -500 192 -610 64 -71 148 -126 233 -154 142
-48 247 -148 303 -292 35 -90 44 -198 16 -198 -8 0 -15 3 -16 8 -7 74 -14 107
-34 171 -51 160 -118 222 -338 310 -184 73 -262 168 -355 431 -39 109 -41 123
-47 270 -7 175 -15 220 -53 305 -36 82 -63 115 -131 164 -83 58 -105 97 -105
186 0 63 4 79 47 165 33 68 47 108 47 137 0 32 5 46 23 58 21 15 22 15 25 -16
2 -18 -2 -53 -8 -78z m-2789 59 c69 -36 103 -66 148 -131 56 -81 71 -120 78
-205 5 -62 3 -77 -18 -119 -33 -65 -149 -169 -163 -146 -3 5 11 20 32 34 40
29 105 83 85 73 -17 -9 -16 -6 3 40 26 61 22 160 -9 227 -33 72 -115 159 -180
192 -100 49 -274 18 -345 -62 -71 -80 -96 -161 -73 -241 7 -25 7 -32 -2 -29
-16 5 -25 42 -26 112 -2 140 34 184 224 266 58 25 186 19 246 -11z m-42 -107
c-7 -10 -26 -32 -41 -49 l-29 -31 25 -17 c31 -20 33 -32 5 -39 -13 -3 -18 -10
-14 -17 5 -9 10 -9 18 -1 6 6 18 11 27 11 12 0 13 -2 1 -9 -16 -11 -6 -31 16
-31 13 0 13 -2 2 -17 -12 -14 -12 -16 1 -11 8 3 19 -4 25 -16 6 -13 24 -23 43
-26 l33 -5 -61 -60 c-54 -53 -62 -58 -80 -47 -11 7 -20 8 -20 3 0 -6 5 -13 10
-16 6 -4 8 -11 4 -16 -4 -6 -14 -3 -25 7 -20 18 -27 6 -7 -14 20 -20 -1 -26
-22 -7 -18 16 -20 16 -20 2 0 -10 5 -17 10 -17 23 0 7 -28 -24 -43 -33 -15
-36 -15 -85 9 -81 41 -158 147 -176 245 -6 33 -4 37 35 63 23 15 49 25 57 22
11 -5 13 -2 9 10 -5 14 -4 15 9 4 12 -10 15 -10 15 4 0 9 5 16 10 16 6 0 10
-9 10 -20 0 -33 19 -23 25 13 6 28 15 38 59 60 29 15 60 27 67 27 8 0 19 4 25
9 5 5 23 11 39 14 17 2 32 5 34 6 2 0 -2 -7 -10 -16z m-632 -14 c83 -31 162
-85 156 -107 -2 -10 5 -26 16 -36 13 -11 21 -32 21 -50 0 -17 9 -51 21 -75 22
-50 26 -45 -63 -91 -31 -16 -66 -35 -78 -42 -18 -11 -23 -10 -38 8 -9 12 -31
29 -49 38 -18 9 -38 26 -44 39 -7 12 -27 42 -46 66 -18 24 -33 47 -33 52 0 4
25 20 55 34 30 15 53 31 50 35 -3 4 -19 11 -37 14 -60 11 -62 17 -32 79 16 32
32 57 36 57 4 0 33 -10 65 -21z m6603 -94 c0 -3 -21 -33 -47 -67 -121 -155
-166 -189 -268 -203 -27 -4 -58 -9 -67 -12 -12 -3 -18 1 -18 11 0 17 56 36
108 36 60 0 121 49 190 150 40 60 70 90 87 90 8 0 15 -2 15 -5z m-2176 -135
c71 -27 150 -97 167 -147 18 -56 7 -199 -19 -250 -34 -66 -77 -108 -148 -147
-66 -37 -186 -63 -170 -38 4 7 3 12 -3 12 -5 0 -11 -5 -13 -11 -6 -17 -82 -1
-120 25 -18 12 -49 44 -70 71 -76 100 -93 226 -42 312 39 68 113 136 186 173
54 27 71 31 118 27 30 -3 82 -15 114 -27z m-4580 -3 c-1 -9 2 -15 6 -12 4 3
24 -15 44 -39 l35 -44 -60 -11 c-40 -8 -58 -16 -54 -24 4 -7 -5 2 -19 18 -14
17 -24 36 -21 43 3 7 1 10 -5 7 -5 -3 -14 3 -19 14 -9 16 -6 23 19 41 16 12
35 18 41 14 8 -5 9 -3 4 5 -5 9 -2 12 11 9 11 -2 18 -11 18 -21z m-416 -45
c26 -21 41 -46 59 -97 28 -84 29 -95 2 -95 -49 0 -102 49 -149 137 -40 76 -36
98 17 90 20 -4 52 -19 71 -35z m330 -50 c36 -52 39 -62 35 -108 -4 -35 0 -60
11 -82 16 -31 109 -102 132 -102 12 0 84 -101 84 -118 0 -16 -45 -40 -147 -78
-90 -34 -98 -36 -108 -19 -5 9 -25 37 -43 62 -19 24 -32 45 -30 47 1 1 27 8
57 15 42 11 55 11 61 1 4 -7 12 -11 18 -9 6 2 -18 47 -54 99 -70 103 -104 169
-104 200 0 11 -4 20 -9 20 -6 0 -9 -12 -8 -27 2 -23 -3 -28 -37 -35 -21 -5
-40 -7 -42 -5 -2 2 -12 31 -23 65 -13 42 -15 62 -7 62 6 0 45 16 86 35 41 19
78 35 82 35 4 0 25 -26 46 -58z m2447 -6 c91 -45 149 -107 171 -183 9 -30 13
-61 10 -69 -10 -27 -30 -9 -38 33 -16 96 -82 171 -172 198 -60 18 -164 19
-220 3 -58 -17 -157 -99 -272 -225 -55 -59 -151 -162 -215 -228 -165 -170
-228 -272 -268 -432 -94 -380 -124 -469 -201 -598 -30 -50 -45 -65 -98 -92
-47 -25 -77 -33 -114 -33 -87 0 -125 18 -202 95 -231 231 -442 297 -659 206
-76 -32 -113 -34 -72 -5 26 19 166 61 230 69 129 16 336 -68 456 -186 30 -30
81 -74 113 -98 54 -42 61 -45 119 -44 47 0 73 6 107 25 51 28 120 117 146 188
9 25 25 63 35 85 10 22 39 125 64 229 55 225 75 282 146 407 44 77 75 116 178
219 69 69 157 159 194 200 167 183 332 286 445 276 24 -2 77 -20 117 -40z
m-1945 -28 c9 -23 75 -95 123 -135 25 -20 27 -27 27 -105 0 -109 -5 -115 -97
-110 l-71 4 5 56 c7 64 11 64 -65 0 -32 -27 -52 -29 -52 -6 0 6 -13 32 -29 57
-35 57 -50 161 -25 182 26 21 138 77 157 78 10 1 22 -9 27 -21z m-282 -7 c21
-11 43 -30 50 -43 20 -40 32 -110 21 -130 -15 -27 -69 -58 -103 -58 -37 0
-102 44 -122 81 -20 40 -18 122 4 141 37 33 96 36 150 9z m6159 -27 c2 -7 -12
-15 -33 -19 -52 -9 -82 -32 -106 -79 -27 -55 -64 -93 -113 -118 -22 -11 -55
-31 -73 -45 -18 -14 -40 -22 -48 -19 -28 11 4 45 74 79 56 27 73 41 107 92 58
86 177 154 192 109z m-1051 -136 c28 4 38 -23 16 -45 -16 -16 -16 -16 5 -11
26 7 48 -14 39 -37 -3 -8 -16 -15 -28 -16 -13 0 -17 -3 -10 -6 15 -6 16 -43 0
-43 -6 0 -20 7 -30 17 -11 9 -18 11 -18 5 0 -26 -31 -10 -37 18 -4 21 -11 29
-22 28 -10 -2 -17 5 -19 20 -3 19 1 22 27 22 23 0 29 4 25 15 -9 22 4 48 18
38 7 -4 23 -6 34 -5z m-242 -45 c12 -76 7 -122 -14 -135 -23 -14 -26 -28 -7
-28 16 0 40 -37 26 -42 -6 -2 -11 -10 -12 -19 -2 -9 -19 -30 -38 -47 -30 -27
-41 -30 -72 -25 -27 4 -47 -1 -81 -20 l-45 -25 -44 47 c-24 25 -52 59 -62 74
l-18 28 40 42 c22 23 49 58 61 77 41 68 79 94 146 101 119 12 113 13 120 -28z
m-2460 -90 c2 -10 7 -64 11 -120 7 -116 31 -192 72 -235 15 -15 30 -28 35 -28
4 0 27 -14 50 -30 52 -36 126 -53 338 -76 114 -12 183 -25 260 -50 123 -39
163 -62 190 -106 41 -68 11 -159 -67 -205 -61 -36 -73 -24 -20 20 25 20 55 52
67 71 19 32 20 37 6 70 -12 28 -29 42 -88 72 -129 65 -200 84 -348 95 -194 14
-250 23 -319 54 -70 32 -145 106 -180 178 -23 47 -50 259 -38 291 8 21 24 20
31 -1z m-2809 -19 c27 -15 62 -51 90 -89 66 -93 66 -95 11 -95 -40 0 -52 5
-89 40 -24 21 -56 62 -71 90 -44 81 -21 101 59 54z m6140 -24 c3 -5 -12 -29
-35 -54 -30 -33 -44 -58 -52 -98 -14 -65 -8 -89 33 -152 35 -52 51 -64 215
-155 61 -34 124 -75 139 -92 l29 -29 -25 0 c-15 0 -38 13 -58 34 -30 31 -76
57 -215 122 -50 23 -98 71 -136 137 -50 87 -38 152 46 251 41 47 49 52 59 36z
m-1204 -132 c85 -99 81 -91 64 -124 -8 -16 -15 -39 -15 -51 0 -16 -22 -37 -79
-77 -43 -31 -83 -56 -88 -56 -4 0 -21 24 -37 52 l-28 52 -19 -23 c-11 -13 -19
-28 -19 -35 0 -6 -7 -22 -16 -34 -14 -20 -17 -21 -42 -7 -15 8 -40 26 -57 39
l-29 25 16 48 c9 26 27 74 40 105 22 56 24 57 55 52 29 -5 34 -3 43 20 6 17
17 26 32 26 13 0 41 11 63 24 22 13 45 25 51 25 6 1 35 -27 65 -61z m-4188
-36 c2 -11 17 -22 36 -25 18 -4 31 -13 31 -22 0 -8 -4 -15 -10 -15 -5 0 -9
-10 -7 -22 2 -18 -4 -24 -26 -26 -16 -2 -31 -10 -34 -18 -7 -18 -32 -18 -39 1
-4 10 -14 13 -30 9 -20 -5 -24 -3 -24 18 0 13 6 30 13 37 10 10 8 14 -7 23
-15 8 -16 12 -5 19 8 5 24 9 37 9 13 0 22 6 22 15 0 22 37 19 43 -3z m4446
-43 c17 -17 34 -42 37 -56 10 -38 -14 -103 -51 -140 -27 -27 -41 -33 -75 -33
-34 0 -48 6 -76 34 -39 39 -43 72 -18 136 11 28 29 48 58 65 55 33 88 32 125
-6z m266 -51 c36 -44 62 -84 58 -88 -4 -4 -29 -24 -56 -45 -47 -37 -48 -37
-68 -19 -15 13 -19 26 -15 46 7 37 -6 36 -22 -1 -16 -37 -148 -157 -220 -201
-51 -31 -68 -54 -21 -30 19 11 25 9 40 -11 21 -27 24 -39 10 -39 -5 0 -45 -22
-89 -49 l-80 -50 -6 39 c-3 23 -24 62 -53 100 l-46 62 24 19 c100 79 113 86
148 76 49 -12 93 -1 123 31 33 34 58 84 58 114 0 13 4 28 8 34 12 18 116 94
129 94 7 0 42 -37 78 -82z m-3172 -28 c31 -6 57 -15 57 -20 0 -20 -139 -110
-171 -110 -12 0 -7 43 13 113 8 27 16 36 27 33 9 -3 42 -10 74 -16z m223 -70
c2 0 4 -6 4 -13 0 -16 -49 -69 -112 -120 -48 -39 -216 -147 -230 -147 -4 0 -8
42 -8 94 l0 94 73 41 c39 22 88 54 107 70 l34 29 64 -24 c36 -13 66 -24 68
-24z m107 -46 c18 -10 58 -35 90 -57 47 -34 57 -46 57 -70 0 -26 3 -29 25 -23
40 10 86 -18 151 -92 92 -104 88 -97 69 -126 -18 -27 -15 -58 7 -89 11 -15 18
-16 46 -6 17 6 32 16 32 22 0 7 4 6 10 -3 12 -20 -1 -34 -65 -68 l-53 -29 -5
40 c-3 21 -21 65 -40 96 -31 50 -44 61 -120 100 -110 57 -164 63 -239 28 -75
-35 -132 -88 -173 -161 -30 -54 -35 -72 -35 -128 0 -46 -4 -69 -15 -78 -22
-19 -18 -63 8 -88 13 -12 27 -19 30 -15 4 4 15 -4 24 -18 38 -54 95 -107 134
-124 36 -17 47 -17 102 -6 101 19 198 72 260 142 l55 60 19 -26 19 -27 113 61
c62 34 114 61 117 61 2 0 4 -7 4 -15 0 -9 -11 -20 -25 -25 -39 -15 -43 -39
-10 -68 l29 -24 21 26 22 27 34 -38 c19 -21 52 -67 74 -103 21 -36 93 -139
160 -230 66 -91 128 -177 138 -192 22 -36 22 -100 0 -126 -28 -31 -345 -270
-466 -351 -60 -40 -126 -79 -147 -86 -37 -13 -40 -12 -79 16 -45 32 -139 143
-186 218 -29 46 -258 394 -314 476 l-28 41 25 37 c19 29 23 44 18 71 -9 48
-50 79 -96 73 -34 -4 -36 -3 -77 71 -68 121 -132 323 -159 502 -6 35 -5 35 68
72 90 46 220 149 273 216 22 28 46 51 53 52 7 0 27 -7 45 -16z m2937 -36 c0
-30 -36 -88 -54 -88 -8 0 -17 -8 -21 -17 -5 -15 -4 -16 6 -5 7 6 17 12 21 12
13 0 -72 -103 -100 -122 -53 -35 -56 5 -8 100 27 53 46 76 87 105 62 43 69 45
69 15z m-5627 -48 c7 -26 -30 -54 -133 -103 -63 -30 -83 -45 -119 -94 -92
-122 -107 -187 -71 -301 26 -83 27 -168 2 -181 -17 -9 -18 -4 -18 57 0 46 -5
78 -18 101 -43 81 10 261 108 363 25 26 83 72 129 102 47 29 88 59 91 65 11
17 23 13 29 -9z m6646 -196 c33 -31 75 -79 92 -108 17 -28 51 -80 75 -116 60
-91 63 -101 94 -295 12 -72 67 -214 96 -246 17 -19 10 -63 -9 -56 -16 5 -52
69 -77 136 -12 30 -27 105 -35 166 -15 123 -30 168 -74 223 -15 21 -47 73 -69
117 -39 78 -90 136 -182 207 l-35 27 31 1 c25 0 45 -12 93 -56z m-3762 -38
c107 -54 155 -128 154 -240 -1 -101 -34 -175 -100 -224 -42 -31 -45 -6 -6 43
18 22 40 54 49 72 17 34 22 132 7 161 -79 160 -119 188 -265 180 -73 -4 -89
-8 -121 -32 -107 -82 -144 -230 -85 -345 11 -22 17 -47 14 -55 -3 -9 -1 -16 6
-16 6 0 8 6 5 13 -4 6 8 -4 27 -25 37 -41 66 -58 98 -58 16 0 20 -5 16 -15 -3
-9 0 -15 10 -15 8 0 13 4 9 9 -3 6 11 13 32 16 50 8 92 24 125 47 32 22 35 22
35 2 0 -21 -82 -59 -165 -75 -60 -13 -66 -12 -105 9 -86 47 -147 150 -162 275
-6 50 -5 57 9 51 9 -3 16 -2 16 4 0 6 -6 12 -12 14 -21 7 21 87 77 147 102
109 196 126 332 57z m2373 4 c-10 -7 -11 -10 -2 -10 17 0 15 -31 -6 -56 -9
-11 -33 -31 -52 -44 -19 -13 -53 -40 -75 -60 -48 -45 -68 -53 -90 -36 -24 17
-12 68 23 103 30 28 203 125 211 117 3 -3 -1 -9 -9 -14z m-2399 -46 c63 -32
121 -135 123 -218 2 -123 -120 -241 -264 -253 -69 -6 -107 17 -165 100 -34 51
-40 66 -43 125 -7 126 63 242 155 257 21 4 45 8 53 10 26 6 114 -7 141 -21z
m3492 -242 c23 -16 53 -33 67 -37 14 -4 38 -18 53 -31 16 -13 34 -24 42 -24 7
0 18 -6 24 -14 6 -7 48 -35 94 -61 108 -64 117 -72 117 -112 0 -33 -12 -43
-26 -22 -3 6 -21 17 -39 25 -18 7 -46 24 -61 37 -41 34 -102 71 -227 139 -60
32 -124 70 -143 84 -32 25 -33 28 -17 40 24 19 65 10 116 -24z m-6058 -89
c-41 -85 -62 -169 -74 -305 -13 -136 -39 -203 -71 -183 -7 4 -2 23 15 50 17
30 25 58 25 92 0 26 9 100 20 164 21 128 70 249 101 249 14 0 11 -11 -16 -67z
m5918 -167 c50 -29 128 -76 172 -103 44 -28 118 -71 165 -96 114 -61 128 -72
113 -88 -10 -10 -16 -9 -30 3 -10 9 -34 23 -53 32 -19 8 -94 53 -167 98 -72
46 -170 107 -217 137 -47 29 -86 58 -86 62 0 14 5 12 103 -45z m-6525 -15 c2
-39 -2 -60 -17 -85 -29 -46 -36 -130 -17 -185 30 -83 15 -214 -23 -204 -17 4
-18 8 -4 51 14 43 14 55 -5 145 -22 107 -21 121 23 206 21 42 26 64 22 93 -4
27 -2 38 6 35 7 -2 13 -27 15 -56z m6572 -70 c69 -43 180 -111 248 -150 110
-64 122 -74 110 -89 -7 -9 -13 -18 -14 -20 -3 -5 -285 158 -334 193 -25 17
-66 39 -93 49 -49 18 -59 30 -71 80 -9 37 -5 35 154 -63z m-1365 -99 c-4 -20
-16 -54 -28 -77 -16 -31 -21 -64 -25 -150 l-4 -111 42 -84 c23 -47 53 -100 67
-118 22 -29 23 -36 12 -48 -12 -12 -20 -6 -53 39 -55 74 -87 148 -99 233 -11
77 -3 136 41 306 15 59 19 65 35 56 15 -8 18 -17 12 -46z m-1041 -29 c20 -32
36 -60 36 -64 0 -14 -111 -90 -122 -83 -7 4 -8 3 -4 -4 4 -7 5 -12 1 -12 -3 0
-23 28 -45 62 -37 59 -38 63 -22 82 18 20 101 76 113 76 4 0 24 -26 43 -57z
m-3884 6 c30 -16 85 -56 122 -88 76 -67 134 -91 218 -91 74 0 118 28 141 90
23 63 51 90 92 90 19 0 40 -6 46 -14 9 -11 4 -14 -29 -19 -51 -7 -62 -16 -99
-82 -42 -74 -72 -95 -137 -95 -29 0 -78 9 -107 20 -71 27 -211 112 -264 161
-30 27 -52 39 -72 39 -47 0 -54 -24 -46 -160 6 -98 4 -122 -9 -148 -22 -42
-63 -62 -129 -62 -48 0 -59 4 -111 45 -32 25 -63 45 -68 45 -5 0 -28 16 -51
35 -31 27 -49 35 -72 33 -27 -3 -30 -7 -33 -43 -2 -28 8 -69 33 -133 61 -158
57 -256 -12 -333 -45 -50 -77 -67 -151 -80 -75 -14 -96 -28 -141 -99 -31 -48
-39 -71 -44 -126 -9 -90 16 -157 90 -250 96 -120 102 -157 48 -318 -37 -112
-43 -175 -24 -252 9 -36 28 -61 94 -127 73 -73 84 -89 90 -128 7 -47 -14 -206
-40 -299 -28 -104 -16 -144 54 -189 71 -44 138 -61 296 -75 l144 -12 71 -48
c83 -57 116 -95 230 -264 58 -86 99 -136 128 -157 42 -29 48 -30 145 -29 94 1
112 5 237 48 128 44 144 47 290 57 195 12 246 26 294 79 20 22 36 51 36 64 0
13 7 29 14 36 8 6 20 36 27 65 11 48 32 76 42 57 8 -13 -22 -134 -44 -179 -52
-108 -120 -138 -337 -148 -147 -7 -217 -22 -337 -72 -87 -37 -94 -38 -210 -38
-113 0 -123 2 -167 28 -27 15 -48 31 -48 35 0 4 -25 38 -56 76 -30 38 -69 96
-85 129 -40 78 -118 160 -183 191 -36 18 -102 33 -221 51 -128 19 -182 32
-220 51 -79 42 -102 61 -125 108 l-21 44 25 104 c34 139 42 223 26 288 -11 46
-23 63 -91 130 -80 80 -91 101 -105 202 -5 36 1 65 30 149 52 150 46 231 -23
317 -87 110 -115 222 -91 362 11 65 17 79 55 119 43 45 43 45 128 52 96 7 117
18 159 80 47 70 47 112 -1 248 -48 139 -54 212 -20 255 11 14 29 26 40 26 31
0 91 -35 129 -75 47 -49 158 -105 209 -105 32 0 44 6 66 32 25 29 26 34 18 97
-14 113 -10 183 11 214 17 25 23 28 55 22 20 -4 61 -20 91 -36z m1082 -9 c101
-29 149 -121 127 -245 -6 -33 -14 -91 -17 -130 -6 -58 -10 -70 -26 -73 -17 -4
-18 1 -12 49 4 30 14 88 22 129 19 91 12 149 -22 189 -47 56 -149 66 -244 22
-25 -11 -65 -21 -90 -21 -46 0 -122 28 -135 50 -9 14 -3 13 100 -16 l60 -17
74 36 c79 39 104 43 163 27z m5206 -53 c50 -29 106 -66 124 -82 l33 -30 -39
-3 c-56 -5 -120 23 -158 68 -40 46 -72 100 -61 100 5 0 50 -24 101 -53z m850
-115 c53 -143 43 -270 -31 -393 -50 -81 -61 -123 -60 -229 0 -74 5 -106 21
-142 20 -47 17 -58 -18 -58 -18 0 -42 151 -38 236 4 76 9 93 56 186 84 169 88
222 34 377 -26 74 -28 111 -4 111 4 0 22 -40 40 -88z m-3173 51 c14 -16 22
-34 20 -41 -3 -7 -1 -11 4 -7 10 6 61 -51 61 -68 0 -13 -95 -87 -112 -87 -13
0 -53 50 -53 67 0 7 -3 12 -7 10 -12 -4 -49 37 -43 50 2 8 1 11 -4 8 -5 -3
-12 -1 -16 5 -5 7 107 89 123 90 2 0 14 -12 27 -27z m1841 -27 c119 -31 230
-122 292 -238 19 -35 47 -77 63 -93 39 -41 38 -57 -1 -44 -16 6 -30 15 -30 20
0 5 -15 26 -32 46 -18 21 -43 59 -56 84 -52 103 -156 176 -277 195 -58 8 -178
-13 -209 -37 -13 -10 -36 -19 -50 -19 -24 0 -25 2 -16 20 14 27 43 41 125 61
88 21 127 22 191 5z m-5659 -12 c8 -22 -15 -182 -33 -223 -21 -48 -101 -156
-154 -208 -45 -45 -134 -93 -170 -93 -29 0 -75 49 -93 100 -18 49 -50 221 -43
227 2 3 13 0 23 -6 20 -10 53 -129 53 -190 0 -21 10 -38 35 -60 44 -39 83 -40
124 -5 35 29 141 157 172 207 30 49 59 153 59 213 0 52 14 72 27 38z m3936
-138 c-3 -6 -2 -8 2 -3 5 4 19 -3 32 -15 24 -23 32 -44 11 -32 -9 5 -9 3 1 -9
7 -9 17 -15 21 -12 16 10 32 -23 21 -43 -9 -17 -55 -56 -91 -77 -13 -8 -13 -7
-1 8 12 15 9 21 -11 18 -5 0 -8 3 -8 8 0 10 -39 27 -52 23 -12 -3 -49 51 -43
65 2 8 0 11 -5 8 -6 -3 -10 -3 -10 2 1 4 26 27 57 50 43 33 59 40 70 32 7 -6
10 -16 6 -23z m1369 -58 c5 -101 -9 -232 -28 -269 -18 -36 -82 -69 -134 -69
-79 0 -235 54 -247 86 -11 29 7 27 84 -9 158 -71 203 -69 251 12 25 43 27 53
27 171 1 127 5 150 30 150 10 0 14 -20 17 -72z m-3878 -40 c16 -51 32 -103 37
-116 5 -13 9 -82 9 -154 l0 -130 -49 -117 c-27 -64 -54 -141 -61 -172 -18 -80
-9 -213 17 -264 26 -49 99 -118 173 -164 149 -92 161 -102 181 -147 27 -59 41
-148 29 -180 -17 -44 -29 -25 -28 49 1 54 -4 82 -20 112 -26 51 -48 70 -151
131 -176 103 -251 220 -251 389 0 43 53 215 84 273 48 90 54 245 17 417 -32
143 -35 165 -24 165 5 0 22 -42 37 -92z m2179 -86 c15 -14 27 -31 27 -37 0
-13 -43 -55 -83 -80 -35 -22 -44 -15 -62 56 l-15 54 32 27 c36 29 51 27 101
-20z m-2582 -118 c6 -87 28 -141 76 -186 42 -40 74 -48 189 -48 69 0 104 -4
104 -11 0 -8 -38 -10 -124 -8 -120 4 -126 5 -167 34 -54 38 -94 113 -109 207
-12 72 -8 102 13 96 7 -3 14 -34 18 -84z m1806 -49 c9 -11 23 -28 31 -38 14
-16 12 -21 -28 -62 -24 -25 -48 -45 -52 -45 -9 0 -98 120 -98 132 0 4 21 24
48 43 l47 35 18 -23 c10 -12 25 -31 34 -42z m3286 9 c17 -25 52 -89 76 -142
39 -86 44 -104 44 -167 -1 -82 -21 -145 -73 -236 -21 -36 -46 -84 -55 -107 -9
-23 -41 -85 -71 -139 -56 -101 -64 -124 -110 -305 -34 -139 -31 -279 9 -372
14 -32 33 -108 43 -168 17 -104 20 -111 54 -140 69 -59 150 -99 204 -101 74
-2 229 5 240 11 13 7 128 2 163 -7 27 -7 27 -8 -17 -19 -25 -6 -131 -12 -235
-13 l-190 -3 -45 27 c-25 14 -69 38 -99 53 -66 33 -84 68 -106 209 -9 54 -27
124 -41 157 -33 78 -43 243 -21 338 49 210 84 309 132 375 33 45 119 220 147
300 35 97 41 159 24 226 -17 62 -76 187 -113 237 -19 25 -21 32 -8 32 8 0 30
-21 48 -46z m-5788 -5 c87 -12 141 -29 113 -36 -25 -6 -22 -30 3 -44 24 -13
75 4 64 21 -8 13 1 13 24 -2 11 -7 16 -18 13 -31 -4 -17 -1 -18 25 -13 28 6
43 -2 155 -92 130 -104 170 -145 206 -213 22 -41 22 -42 3 -55 -21 -15 -18
-54 5 -54 8 0 14 -9 14 -20 0 -11 7 -20 15 -20 8 0 15 8 15 17 0 16 1 16 17 1
25 -26 37 -227 18 -326 -31 -159 -130 -308 -166 -250 -9 14 -49 0 -49 -18 0
-8 -10 -14 -25 -14 -14 0 -25 -5 -25 -11 0 -6 9 -9 19 -6 14 3 18 1 14 -10 -3
-8 -12 -12 -19 -9 -19 7 -27 -10 -13 -32 11 -17 5 -26 -39 -70 -29 -29 -84
-68 -123 -87 -68 -35 -71 -35 -101 -20 -30 15 -33 14 -70 -10 -21 -14 -38 -29
-38 -34 0 -17 -166 -32 -237 -21 -101 15 -113 19 -113 35 0 18 -37 20 -42 3
-3 -9 -6 -9 -12 1 -5 8 -1 14 13 18 26 7 28 23 2 23 -11 0 -27 10 -35 22 -12
17 -19 19 -28 10 -9 -9 -7 -16 8 -33 14 -16 15 -21 4 -17 -8 2 -19 14 -25 26
-10 23 -42 26 -38 4 2 -7 0 -12 -3 -12 -17 0 -176 115 -236 169 -57 52 -76 79
-122 171 -30 60 -60 135 -66 165 -15 72 1 257 29 337 72 208 237 392 378 423
18 3 39 15 45 24 20 28 70 49 175 76 112 27 142 29 248 14z m2960 -56 l45 -37
-22 -23 c-24 -25 -117 -88 -122 -82 -10 13 -36 93 -36 112 0 22 51 65 78 66 7
1 33 -16 57 -36z m-351 -54 c14 -11 23 -25 20 -31 -4 -6 -2 -8 3 -5 6 4 19 -3
29 -15 11 -12 13 -18 5 -13 -10 5 -12 4 -7 -4 4 -6 11 -9 16 -6 12 7 33 -23
27 -39 -3 -8 -33 -33 -66 -55 l-60 -41 -17 24 c-8 14 -12 31 -8 37 5 8 3 9 -6
4 -10 -6 -12 -4 -7 8 3 9 3 16 -1 15 -15 -5 -62 35 -62 52 0 20 73 90 94 90 7
0 25 -9 40 -21z m-1304 -123 c97 -40 123 -86 124 -218 1 -92 2 -98 30 -127 44
-46 89 -62 202 -72 127 -11 189 -33 279 -101 86 -65 142 -138 151 -194 7 -47
-9 -134 -37 -209 -10 -27 -19 -58 -19 -67 0 -10 -6 -18 -14 -18 -10 0 -7 26
15 117 34 138 34 145 9 200 -41 91 -120 162 -220 198 -25 9 -101 29 -170 44
-69 16 -139 35 -155 44 -76 39 -104 102 -105 228 0 105 -39 140 -177 160 -88
13 -88 13 -78 30 10 15 116 6 165 -15z m1476 -70 c40 -50 41 -54 26 -78 -13
-23 -92 -78 -111 -78 -4 0 -29 27 -55 59 l-46 59 37 31 c21 17 43 31 49 31 6
0 17 7 24 15 20 24 33 18 76 -39z m3844 -119 c0 -13 11 -56 25 -96 48 -142 43
-208 -23 -316 -34 -55 -37 -66 -37 -133 0 -73 -9 -88 -35 -57 -8 10 -11 36 -8
74 3 49 11 70 46 121 64 96 64 122 7 319 -23 77 -25 95 -14 102 24 15 39 10
39 -14z m-1443 -56 c29 -6 60 -24 102 -60 87 -75 104 -108 109 -206 8 -152
-42 -252 -153 -308 -74 -38 -135 -44 -211 -22 -101 29 -206 105 -251 183 -24
40 -26 54 -24 126 2 71 6 87 33 129 41 64 109 122 172 146 54 21 149 26 223
12z m-1002 -346 c14 -13 25 -29 25 -35 0 -5 9 -10 20 -10 13 0 20 -7 20 -20 0
-10 -9 -24 -20 -30 -11 -6 -20 -16 -20 -23 0 -15 -77 -21 -86 -6 -3 5 0 16 6
24 8 10 9 15 2 15 -6 0 -14 -4 -17 -10 -3 -5 -20 -10 -36 -10 -33 0 -48 22
-30 44 7 8 9 25 5 42 -7 27 -7 27 35 20 32 -5 43 -3 47 9 9 21 21 19 49 -10z
m431 10 c54 -8 105 -15 112 -15 6 0 12 -8 12 -19 0 -21 39 -83 82 -128 l31
-32 -47 -75 c-26 -42 -52 -79 -59 -83 -17 -10 -158 -3 -182 10 -40 21 -115 82
-115 92 0 7 16 32 36 58 20 25 33 51 29 56 -3 6 -28 11 -56 11 -60 0 -60 -1
-23 128 5 16 58 15 180 -3z m457 -291 c44 -6 46 -9 66 -58 11 -28 23 -67 27
-88 l6 -36 -55 -16 c-76 -22 -84 -21 -92 14 -4 17 -10 30 -13 30 -4 0 -27 -30
-51 -65 -24 -36 -47 -65 -51 -65 -5 0 -21 10 -37 23 -15 13 -36 26 -45 30 -12
4 -18 17 -18 35 0 16 -11 46 -25 66 -14 20 -25 40 -25 43 0 8 79 134 97 155
14 16 21 14 93 -22 42 -22 98 -43 123 -46z m-335 -101 c37 -23 67 -99 56 -142
-24 -94 -172 -108 -260 -25 -29 27 -34 38 -34 77 0 41 4 49 35 74 54 43 150
51 203 16z m-275 -65 c9 -11 17 -30 17 -43 0 -31 33 -70 88 -102 37 -22 60
-28 113 -29 52 -1 76 -7 112 -29 26 -15 47 -29 47 -32 0 -14 -62 -111 -83
-131 l-25 -23 -61 30 c-61 31 -61 32 -45 56 8 13 23 26 32 28 11 3 1 11 -30
26 -26 12 -50 25 -52 30 -3 5 -38 28 -77 51 l-71 42 -25 -26 -24 -27 -70 62
c-83 74 -84 75 -61 88 11 6 36 32 57 60 l38 49 51 -30 c28 -16 59 -38 69 -50z
m-3030 -46 c3 -27 24 -94 47 -148 83 -197 57 -326 -83 -407 -63 -36 -99 -45
-246 -62 -153 -17 -217 -40 -235 -87 -6 -16 -18 -28 -28 -28 -45 0 6 62 83
100 46 24 85 33 181 45 199 24 213 29 280 104 73 81 86 163 42 266 -48 113
-80 265 -55 265 4 0 11 -22 14 -48z m597 14 c0 -8 -23 -74 -37 -105 -16 -36
-14 -91 7 -188 13 -59 31 -79 143 -165 42 -32 77 -65 77 -73 0 -23 -12 -18
-44 16 -16 16 -50 41 -76 54 -64 32 -96 73 -120 154 -24 81 -25 137 -5 215 8
32 13 61 10 66 -3 5 3 13 12 19 18 11 33 14 33 7z m2106 -26 c26 0 188 -129
192 -153 5 -23 -43 -40 -91 -33 -41 7 -89 30 -147 72 -64 46 -81 66 -74 88 10
30 24 37 64 31 19 -2 45 -5 56 -5z m2690 -215 c-37 -136 -131 -262 -211 -280
-16 -4 -53 -15 -80 -25 -28 -10 -71 -20 -95 -22 -36 -2 -45 0 -48 15 -3 15 3
17 45 16 28 -1 61 5 80 14 17 9 50 19 74 23 24 3 54 13 67 21 29 18 112 145
112 171 0 18 33 123 45 142 3 6 12 10 20 10 11 0 9 -17 -9 -85z m-1601 55 c10
-11 24 -20 32 -20 18 0 17 -29 -2 -36 -9 -4 -15 -19 -15 -35 0 -33 -26 -50
-42 -28 -6 9 -11 10 -14 3 -21 -51 -71 -58 -62 -9 4 21 1 25 -18 25 -35 0 -36
14 -4 45 17 16 30 37 30 46 0 33 67 40 95 9z m-710 -142 c22 0 42 -3 45 -8 3
-4 29 -19 58 -34 54 -27 61 -36 39 -54 -34 -29 -124 -26 -113 3 3 9 0 15 -8
15 -8 0 -16 -5 -18 -12 -7 -20 -76 10 -157 68 -2 2 -1 11 3 20 5 14 14 16 59
9 28 -5 70 -8 92 -7z m-5535 -557 c97 -15 170 -78 170 -146 0 -34 -14 -60 -27
-52 -5 3 -15 2 -23 -3 -9 -5 -19 -5 -27 1 -9 8 -17 1 -30 -30 -17 -39 -20 -41
-63 -41 -35 0 -48 5 -58 20 -14 23 -37 17 -27 -7 5 -14 -7 -15 -96 -8 -69 4
-107 12 -117 22 -10 9 -18 11 -25 4 -6 -6 -26 3 -59 26 -45 33 -49 39 -46 72
3 31 7 36 27 36 13 0 26 6 28 13 3 6 0 12 -6 12 -6 0 -11 5 -11 11 0 7 16 10
42 7 46 -4 81 18 76 50 -3 15 7 17 74 17 42 0 80 4 85 8 4 5 21 5 38 2 16 -4
50 -11 75 -14z"/>
<path d="M2185 10809 c-37 -6 -36 -6 18 -8 36 0 56 -5 52 -11 -3 -5 -2 -10 4
-10 5 0 12 4 15 9 4 5 27 9 53 9 32 0 42 -3 32 -9 -9 -6 -2 -7 20 -2 25 4 32
3 27 -5 -4 -7 -22 -12 -39 -13 -29 -1 -29 -2 10 -9 25 -5 64 -26 97 -52 30
-24 78 -60 105 -80 54 -40 81 -82 86 -132 2 -17 7 -55 11 -84 11 -87 -30 -191
-110 -276 -16 -17 -21 -26 -11 -22 9 3 13 2 10 -4 -3 -6 -14 -10 -24 -10 -10
0 -30 -11 -44 -24 -14 -13 -29 -21 -33 -17 -4 3 -3 0 1 -8 6 -11 4 -13 -8 -8
-21 8 -49 -2 -41 -14 3 -5 -10 -7 -28 -4 -29 4 -30 4 -8 -4 24 -9 24 -9 3 -10
-13 -1 -23 -5 -23 -11 0 -13 -3 -13 52 8 26 10 61 30 77 45 17 15 31 22 31 16
0 -5 5 -7 11 -3 8 4 7 9 -2 15 -10 6 -6 9 13 9 18 0 29 7 33 20 4 11 10 18 14
15 5 -2 19 8 32 23 15 16 17 21 5 12 -18 -14 -18 -13 -11 10 9 31 22 46 32 36
4 -4 1 -12 -7 -17 -13 -9 -13 -10 0 -6 9 2 14 14 12 30 -1 14 3 29 9 33 9 5
10 2 5 -11 -6 -16 -4 -16 10 -4 10 8 12 15 5 17 -6 2 -11 16 -11 30 l1 27 14
-25 c16 -28 21 -19 5 9 -5 11 -6 30 0 47 8 28 8 28 10 -11 1 -29 3 -35 9 -21
9 23 2 66 -10 66 -12 0 -10 59 2 85 8 17 9 17 5 -5 -3 -14 -1 -32 4 -40 7 -11
10 -8 10 15 0 50 -11 77 -25 65 -7 -6 -10 -21 -7 -33 3 -12 2 -19 -1 -16 -13
11 -13 54 0 64 11 8 8 19 -20 58 -18 26 -36 45 -39 42 -3 -3 -11 2 -19 12 -12
15 -12 16 3 10 15 -5 14 -2 -3 28 -26 44 -45 60 -54 45 -5 -8 -11 -8 -21 1 -7
6 -11 16 -8 21 4 6 10 5 16 -3 8 -12 9 -11 6 1 -3 7 -19 22 -37 32 -18 10 -29
13 -25 7 4 -8 -1 -9 -17 -4 -23 7 -23 7 -4 -8 11 -9 21 -12 23 -7 2 4 12 6 23
3 20 -5 20 -6 -1 -20 -19 -13 -23 -13 -38 0 -9 9 -31 23 -47 31 l-30 16 40 1
40 0 -55 18 c-62 20 -174 30 -235 20z"/>
<path d="M1969 10748 c-57 -41 -80 -64 -72 -72 6 -6 -13 -10 -32 -6 -5 1 -5
-4 2 -11 9 -9 15 -9 26 0 12 9 16 8 21 -6 4 -10 4 -14 0 -11 -4 4 -16 2 -27
-3 -14 -8 -22 -8 -27 1 -4 7 -13 2 -25 -17 l-18 -28 21 19 c12 11 22 15 22 9
0 -14 -35 -44 -43 -37 -3 3 -10 -4 -17 -15 -7 -14 -7 -21 0 -21 5 0 10 7 10
16 0 8 5 12 10 9 6 -4 7 -11 4 -17 -4 -7 -2 -8 4 -4 16 10 14 -3 -3 -34 -8
-14 -14 -36 -14 -50 0 -18 4 -13 14 18 26 84 86 147 211 222 79 49 84 50 160
50 42 0 75 2 72 5 -11 11 -173 6 -176 -4 -2 -7 -11 -6 -25 4 -31 22 -47 19
-98 -17z"/>
<path d="M4591 10480 c-28 -26 -53 -40 -71 -40 -15 0 -33 -7 -40 -15 -10 -13
-7 -17 21 -29 32 -14 32 -14 11 -27 -25 -15 -29 -39 -8 -39 12 0 11 -6 -1 -42
-19 -54 -3 -71 28 -29 29 39 48 39 55 1 7 -33 28 -55 44 -45 5 3 10 32 10 65
l0 58 43 -6 c46 -6 46 -5 -6 55 -19 22 -19 22 22 42 58 30 53 44 -14 39 l-56
-5 6 29 c4 15 5 28 3 28 -2 -1 -23 -19 -47 -40z m114 -31 c-11 -5 -32 -13 -47
-19 -16 -5 -28 -14 -28 -18 0 -5 12 -22 28 -37 l27 -28 -27 5 c-33 6 -38 -5
-38 -75 -1 -55 -14 -49 -24 9 -2 16 -5 30 -5 32 -3 8 -61 -30 -70 -45 -6 -10
-11 -15 -11 -11 0 4 9 22 20 40 25 41 26 59 3 51 -12 -4 -10 1 6 14 29 23 21
43 -17 44 -22 0 -18 3 17 14 25 8 49 11 54 8 6 -3 7 -1 3 5 -5 8 2 10 23 6 16
-3 37 -1 48 5 10 6 27 10 38 10 l20 0 -20 -10z"/>
<path d="M3245 9964 c-106 -27 -144 -47 -208 -109 -37 -35 -74 -80 -82 -99
-22 -51 -19 -132 6 -183 26 -53 111 -131 192 -174 70 -37 177 -50 240 -30 60
20 136 97 173 175 38 80 43 132 19 214 -21 68 -101 164 -156 186 -43 18 -149
29 -184 20z m121 -75 c68 -26 134 -83 159 -140 20 -43 19 -51 -21 -162 -19
-53 -94 -137 -124 -137 -10 0 -20 10 -24 23 -10 36 -7 46 15 58 17 9 25 7 45
-12 28 -26 33 -15 7 14 -17 19 -17 20 5 14 17 -4 22 -2 18 8 -3 10 0 12 11 8
13 -5 13 -3 4 14 -8 17 -7 22 4 27 8 3 15 12 15 19 0 8 9 21 19 28 35 24 30
51 -9 62 -44 11 -60 24 -60 48 0 14 -7 19 -30 19 -24 0 -30 4 -28 18 2 11 -3
17 -14 16 -10 -1 -14 4 -11 12 6 17 -9 18 -24 3 -16 -16 -33 -2 -33 25 0 13
-6 29 -14 35 -22 18 -48 0 -86 -58 -34 -54 -58 -68 -89 -52 -35 19 -37 12 -2
-10 35 -21 37 -38 2 -19 -15 7 -21 7 -21 0 0 -6 7 -13 15 -16 29 -12 15 -22
-17 -13 -40 11 -38 11 -38 -1 0 -5 10 -10 23 -10 12 0 29 -5 37 -11 11 -8 8
-9 -15 -4 -16 3 -38 8 -49 12 -12 3 -16 1 -12 -6 4 -5 22 -13 41 -17 52 -9 48
-39 -6 -48 -50 -8 -59 -3 -59 35 0 41 24 85 74 137 44 47 78 68 141 88 57 18
87 17 151 -7z m-96 -39 c0 -16 0 -33 0 -37 0 -5 -8 -8 -17 -8 -10 0 -27 -13
-38 -30 -17 -24 -19 -35 -10 -52 5 -13 16 -23 23 -23 10 0 10 -5 2 -20 -7 -14
-7 -26 -1 -39 8 -15 5 -24 -13 -44 -13 -14 -21 -29 -17 -33 3 -4 -4 -2 -15 4
-28 15 -74 69 -74 88 0 8 7 14 16 14 8 0 12 5 9 10 -3 6 -1 10 4 10 6 0 11
-19 11 -43 0 -41 13 -67 34 -67 6 0 5 5 -2 12 -14 14 -16 58 -3 58 5 0 11 -7
15 -15 3 -8 1 -15 -5 -15 -6 0 -7 -4 -4 -10 4 -6 11 -5 19 2 11 10 10 15 -1
26 -11 12 -11 17 -1 30 11 13 10 15 -9 10 -16 -4 -23 -2 -23 8 0 8 -6 14 -14
14 -8 0 -18 5 -22 11 -4 8 0 9 15 4 12 -4 21 -2 21 4 0 6 -4 11 -10 11 -5 0
-10 5 -10 11 0 5 5 7 11 3 7 -4 10 -1 7 7 -5 14 78 129 93 129 5 0 9 -13 9
-30z"/>
<path d="M2793 9450 c-81 -17 -155 -71 -205 -149 -25 -40 -28 -54 -28 -125 0
-101 19 -144 93 -219 80 -80 166 -119 271 -125 68 -4 91 -1 129 16 59 26 131
93 157 146 24 50 27 150 6 208 -16 45 -97 143 -152 186 -72 56 -182 81 -271
62z m164 -69 c56 -26 124 -90 173 -163 38 -57 40 -65 40 -134 0 -68 -2 -76
-32 -109 -51 -58 -120 -89 -203 -89 -60 0 -78 4 -132 33 -114 61 -183 155
-183 249 0 72 83 182 163 217 45 20 125 18 174 -4z"/>
<path d="M2848 8749 c-20 -11 -24 -59 -8 -89 12 -23 70 -43 96 -34 87 31 62
134 -32 134 -21 0 -47 -5 -56 -11z"/>
<path d="M8480 9485 c-8 -2 -32 -6 -53 -10 -69 -11 -103 -74 -52 -97 33 -15
160 25 181 57 28 43 -5 65 -76 50z"/>
<path d="M8855 9483 c-16 -3 -59 -24 -95 -47 -50 -33 -68 -51 -79 -80 -17 -50
-1 -67 68 -74 104 -10 192 53 195 139 1 40 -21 71 -48 68 -6 -1 -24 -4 -41 -6z"/>
<path d="M7670 9308 c-97 -12 -123 -41 -84 -96 18 -26 62 -28 194 -8 47 7 87
12 90 11 12 -7 8 62 -5 82 -17 26 -56 28 -195 11z"/>
<path d="M8125 9246 c-72 -15 -97 -27 -124 -62 -30 -38 -26 -59 14 -90 33 -25
40 -26 106 -20 74 7 142 34 153 61 3 9 6 35 6 57 0 68 -31 78 -155 54z"/>
<path d="M7125 9136 c-34 -34 -32 -48 14 -89 47 -42 115 -59 217 -55 62 3 70
5 83 30 41 72 -43 131 -196 136 -88 4 -93 3 -118 -22z"/>
<path d="M2066 8117 c-13 -14 -16 -22 -8 -25 7 -2 12 -11 12 -20 0 -9 12 -25
26 -36 22 -15 36 -17 90 -11 38 4 64 11 64 18 0 16 -51 63 -87 82 -38 20 -74
17 -97 -8z"/>
<path d="M9237 7636 c-10 -25 17 -44 124 -85 120 -47 134 -49 149 -21 15 28
-19 60 -64 60 -19 0 -60 14 -91 30 -61 32 -110 39 -118 16z"/>
<path d="M3466 6067 c4 -12 1 -17 -10 -17 -22 0 -40 -48 -25 -66 9 -11 8 -18
-5 -32 -9 -10 -16 -24 -16 -30 0 -13 -51 -42 -74 -42 -47 0 -35 87 14 101 14
4 19 7 11 8 -7 1 -11 7 -7 16 11 28 -11 15 -38 -23 -31 -45 -33 -82 -6 -107
11 -10 20 -26 20 -36 0 -22 55 -69 83 -70 36 -2 61 2 71 12 6 5 20 9 33 9 13
0 23 5 23 10 0 6 -9 10 -21 10 -15 0 -19 5 -15 15 3 8 1 15 -3 15 -5 0 -14
-13 -20 -30 -8 -26 -15 -30 -45 -30 -37 0 -96 40 -96 66 0 7 18 23 40 34 32
16 44 18 61 9 12 -6 30 -9 40 -6 12 3 19 0 19 -9 0 -13 12 -18 33 -15 4 0 7
-3 7 -8 0 -13 52 0 72 19 18 16 17 17 -2 35 -11 10 -20 24 -20 30 0 16 -28 27
-42 18 -7 -4 -9 2 -5 17 7 29 -8 69 -30 77 -10 3 -26 13 -36 21 -16 14 -17 14
-11 -1z"/>
<path d="M7215 5897 c-47 -22 -131 -89 -164 -131 -36 -45 -54 -104 -49 -158 2
-22 -1 -38 -7 -38 -7 0 -7 -3 0 -8 6 -4 27 -32 47 -62 20 -30 61 -73 89 -95
47 -35 59 -40 119 -43 86 -5 140 17 218 91 32 31 63 52 72 50 12 -4 12 -2 2 5
-11 7 -9 17 9 47 40 67 23 202 -32 261 -11 12 -19 25 -18 30 3 20 -2 28 -10
15 -7 -11 -19 -8 -67 15 -68 33 -161 42 -209 21z m232 -205 c3 -14 -1 -30 -11
-41 -14 -16 -15 -20 -2 -30 8 -7 25 -10 38 -7 17 4 15 2 -4 -6 -28 -12 -38
-30 -15 -27 30 4 47 -2 57 -22 16 -29 -23 -77 -108 -134 -63 -43 -70 -45 -138
-45 -57 0 -74 4 -92 20 -26 24 -28 48 -6 57 13 5 13 7 2 14 -10 7 -10 9 0 9 6
0 12 5 12 11 0 8 -11 9 -32 5 -29 -5 -31 -4 -15 8 21 16 22 30 2 22 -21 -8
-31 21 -40 114 l-7 75 33 -34 33 -34 18 24 c16 19 23 21 37 12 14 -9 23 -8 40
4 28 19 35 13 16 -14 -13 -18 -20 -20 -47 -12 -39 11 -55 -1 -64 -47 -9 -46
28 -109 56 -94 23 13 33 13 25 1 -8 -14 15 -25 45 -23 19 1 31 -7 47 -32 25
-39 22 -46 -25 -46 -25 0 -35 5 -39 20 -3 11 -10 20 -15 20 -5 0 -6 -5 -2 -12
5 -8 2 -9 -9 -5 -22 8 -30 -8 -12 -23 8 -7 15 -9 15 -4 0 4 5 3 12 -4 18 -18
97 -15 104 3 4 8 14 15 24 15 22 0 35 17 44 55 4 17 9 38 12 47 4 12 -1 16
-16 15 -17 -1 -19 -6 -14 -33 5 -25 1 -37 -17 -55 l-22 -22 -19 23 c-24 30
-20 66 7 63 11 -1 14 0 7 3 -6 3 -10 10 -7 15 3 5 2 17 -4 27 -7 14 -5 21 10
30 10 7 19 20 19 28 0 9 8 23 18 30 23 17 5 49 -28 49 -13 0 -25 6 -28 13 -5
15 -44 16 -60 0 -9 -9 -12 -8 -12 5 0 13 9 17 35 17 24 0 35 5 35 15 0 8 5 25
12 39 l11 26 39 -53 c21 -28 41 -62 45 -75z"/>
<path d="M2859 5736 c-27 -55 -20 -89 24 -117 35 -22 95 -21 122 1 20 16 19
55 -2 86 -13 20 -98 74 -117 74 -3 0 -15 -20 -27 -44z"/>
<path d="M7647 5199 c-35 -27 -54 -90 -39 -124 24 -52 98 -59 136 -14 31 37
37 117 10 143 -22 22 -76 20 -107 -5z"/>
<path d="M5532 4185 c-127 -64 -208 -154 -232 -260 -19 -80 -20 -82 -30 -65
-7 11 -13 6 -25 -24 -17 -41 -14 -51 17 -51 14 0 24 -13 36 -50 30 -87 144
-171 246 -182 39 -4 73 0 122 15 89 27 148 66 204 131 69 82 104 117 119 122
9 3 11 12 7 26 -4 12 -12 20 -19 17 -8 -3 -12 13 -13 54 -1 60 -25 127 -66
185 -12 17 -23 36 -24 42 0 5 -2 16 -2 24 -2 9 -11 12 -28 8 -17 -3 -47 5 -78
19 -78 36 -146 33 -234 -11z m112 3 c5 -10 7 -10 12 0 15 31 104 6 185 -53
107 -79 138 -240 68 -354 -28 -46 -35 -32 -9 19 29 57 35 125 16 178 -8 23
-13 50 -10 60 4 10 3 13 -3 6 -5 -8 -18 1 -38 26 -16 20 -48 50 -69 66 -35 24
-51 29 -126 32 -74 4 -92 1 -131 -18 -24 -12 -54 -32 -66 -43 -13 -11 -26 -17
-30 -13 -17 17 129 106 173 106 12 0 25 -6 28 -12z m122 -56 c83 -43 134 -122
141 -217 5 -75 -5 -94 -38 -71 -13 9 -31 16 -41 16 -21 0 -25 49 -6 68 9 9 8
12 -5 12 -22 0 -21 8 1 33 16 19 16 19 -8 13 -21 -6 -22 -5 -7 4 9 6 17 16 17
22 0 7 -6 6 -15 -2 -22 -18 -31 -4 -12 18 24 26 21 39 -3 17 -19 -17 -20 -16
-43 37 -33 74 -67 88 -67 26 0 -22 -7 -31 -36 -43 -45 -18 -44 -18 -44 0 0 8
-4 15 -10 15 -5 0 -9 -3 -9 -7 4 -22 -4 -34 -30 -47 -21 -11 -31 -12 -40 -3
-8 8 -11 6 -11 -11 0 -26 -17 -29 -23 -4 -3 12 -5 11 -6 -6 0 -13 -5 -20 -11
-17 -6 4 -10 -6 -10 -21 l0 -28 -30 29 -29 28 -12 -27 c-10 -20 -10 -35 0 -66
7 -22 9 -45 6 -50 -3 -6 -1 -10 6 -10 7 0 10 -3 6 -6 -3 -4 0 -13 8 -21 21
-21 19 -32 -10 -45 -13 -6 -22 -15 -19 -19 3 -5 16 -2 29 7 18 12 25 12 31 3
4 -7 2 -15 -4 -17 -7 -2 -12 -8 -12 -13 0 -6 8 -5 20 1 23 12 27 -2 5 -20 -8
-7 -15 -17 -15 -23 0 -6 11 0 25 13 23 22 26 22 43 7 10 -10 24 -17 30 -17 7
0 12 -14 12 -31 0 -29 -2 -31 -27 -25 -16 4 -51 18 -80 32 -73 35 -98 87 -90
186 9 109 42 165 134 233 42 30 88 58 102 61 14 3 31 8 36 10 23 9 115 -6 151
-24z"/>
<path d="M2473 3129 c-33 -10 -75 -32 -92 -48 -27 -25 -31 -36 -31 -80 0 -43
-3 -51 -18 -51 -24 0 -61 -30 -45 -36 7 -3 9 -12 6 -20 -6 -15 22 -20 31 -5 3
4 27 14 53 22 46 13 47 14 18 19 -16 3 -29 9 -27 13 1 4 2 21 2 38 0 30 1 31
39 24 58 -10 159 19 197 56 l31 30 13 -30 c17 -43 8 -59 -50 -83 -27 -11 -50
-25 -50 -29 0 -12 2 -12 55 11 55 24 56 24 53 8 -2 -7 4 -13 12 -13 9 0 16 11
18 27 2 16 11 30 22 33 10 3 24 13 32 22 11 15 11 16 -7 9 -51 -20 -53 -19
-76 33 -12 29 -30 56 -40 61 -27 15 -77 11 -146 -11z"/>
<path d="M2911 3121 c-26 -26 -27 -53 -3 -74 32 -29 205 -107 238 -107 63 0
86 76 37 121 -51 45 -110 70 -182 76 -61 5 -71 3 -90 -16z"/>
<path d="M3264 2849 c-4 -8 0 -59 12 -123 4 -22 12 -32 19 -24 3 3 1 17 -5 32
-12 34 -13 93 -1 100 21 14 41 -7 41 -43 0 -76 72 -265 105 -278 16 -5 8 -33
-9 -33 -6 0 -19 14 -29 31 -10 18 -20 29 -23 26 -3 -3 2 -16 10 -30 9 -13 14
-30 12 -38 -7 -18 30 -63 44 -54 8 5 6 12 -4 24 -15 16 -14 19 7 38 12 11 32
24 45 28 77 23 48 196 -48 290 -32 31 -51 40 -105 50 -37 7 -68 9 -71 4z m159
-57 c30 -31 85 -138 93 -182 10 -47 -13 -90 -46 -90 -24 0 -32 9 -63 73 -19
39 -40 90 -46 112 -12 43 -15 108 -5 117 10 11 42 -4 67 -30z"/>
<path d="M3372 2732 c6 -64 58 -179 85 -189 22 -9 43 23 43 64 0 37 -40 125
-73 161 -11 12 -29 22 -40 22 -18 0 -19 -5 -15 -58z"/>
<path d="M2750 2789 c-14 -5 -35 -20 -48 -32 -19 -18 -26 -19 -42 -9 -11 7
-28 12 -37 12 -13 0 -8 -8 17 -28 19 -15 43 -35 53 -45 26 -26 42 -11 22 20
-11 16 -13 29 -7 35 6 6 17 -3 32 -26 33 -55 157 -133 229 -145 35 -6 56 -31
27 -31 -28 0 -17 -18 20 -36 30 -15 37 -15 45 -3 13 21 11 27 -10 38 -17 10
-18 14 -6 48 18 51 9 85 -28 121 -70 67 -204 108 -267 81z m152 -30 c75 -28
138 -87 138 -128 0 -38 -32 -55 -78 -42 -79 23 -222 130 -222 166 0 31 87 33
162 4z"/>
<path d="M2788 2763 c-45 -12 -1 -67 100 -126 65 -38 109 -46 130 -25 19 19
15 34 -18 72 -47 54 -157 95 -212 79z"/>
<path d="M2196 2541 c-9 -14 1 -31 20 -31 8 0 14 -4 14 -10 0 -5 -4 -10 -10
-10 -13 0 -38 -50 -49 -102 -14 -60 0 -103 54 -173 71 -91 144 -135 226 -135
21 0 41 -4 44 -10 3 -5 15 -10 26 -10 11 0 22 -7 25 -15 11 -28 26 -15 22 19
-3 24 0 32 9 29 7 -3 13 0 13 6 0 6 -11 16 -25 21 -17 7 -25 17 -25 34 0 13
-9 34 -21 47 l-20 24 5 -40 c3 -26 0 -47 -10 -59 -19 -27 -34 -11 -45 47 -14
80 -118 227 -184 263 -39 21 -41 26 -21 43 12 10 20 9 41 -5 14 -9 28 -14 31
-12 8 9 -56 68 -75 68 -9 0 -22 5 -28 11 -8 8 -13 8 -17 0z m53 -115 c38 -21
130 -136 161 -204 48 -100 37 -138 -31 -109 -75 32 -155 116 -185 193 -14 38
-15 50 -4 89 13 48 21 52 59 31z"/>
<path d="M2199 2393 c-15 -40 6 -105 53 -165 68 -85 178 -139 178 -87 0 63
-156 279 -201 279 -12 0 -24 -11 -30 -27z"/>
<path d="M2954 2156 c-85 -17 -116 -38 -112 -79 2 -25 12 -36 43 -55 36 -20
50 -23 135 -19 105 3 153 21 172 63 10 21 8 28 -12 49 -41 43 -131 59 -226 41z
m182 -32 c41 -20 47 -28 39 -54 -8 -26 -40 -36 -151 -47 -69 -6 -122 7 -150
38 -19 21 -18 21 11 45 31 25 55 30 153 32 41 1 76 -4 98 -14z"/>
<path d="M2944 2121 c-43 -11 -54 -19 -54 -41 0 -29 36 -42 119 -43 118 -1
181 44 111 80 -27 14 -126 16 -176 4z"/>
<path d="M7910 2805 c-63 -20 -124 -75 -156 -142 -36 -74 -36 -176 0 -238 25
-42 80 -91 133 -118 41 -22 147 -47 197 -47 139 0 255 172 225 333 -18 95 -59
151 -144 195 -62 32 -184 40 -255 17z m100 -53 c0 -10 -7 -27 -15 -38 -17 -26
-11 -34 26 -34 17 0 51 -19 96 -54 l68 -53 34 18 c38 20 51 18 32 -5 -7 -8
-19 -12 -27 -9 -10 3 -14 -2 -14 -19 0 -32 -8 -40 -31 -28 -25 14 -37 -9 -13
-27 15 -11 16 -16 6 -31 -7 -9 -15 -25 -19 -36 -5 -15 -13 -17 -47 -12 -38 6
-40 5 -22 -9 11 -8 23 -15 28 -15 4 0 8 -4 8 -9 0 -5 -10 -7 -22 -4 -23 4 -23
4 -3 -12 19 -16 19 -17 -12 -10 -36 7 -45 -7 -16 -24 15 -8 15 -11 3 -26 -13
-16 -14 -15 -21 3 -9 25 -46 20 -69 -9 -15 -18 -17 -18 -68 6 -105 49 -162
111 -162 177 0 40 35 92 53 81 6 -4 19 -8 28 -8 16 -1 16 1 2 22 -8 13 -11 23
-5 23 6 0 12 -6 15 -12 3 -8 19 1 46 27 22 21 37 43 33 47 -8 8 64 94 81 97 4
0 7 -7 7 -17z"/>
<path d="M7924 2627 c-27 -28 -34 -50 -24 -68 5 -8 4 -19 -2 -26 -7 -9 -6 -20
6 -38 9 -13 16 -30 16 -37 0 -20 -49 -68 -69 -68 -48 0 -70 85 -29 112 14 9
19 19 13 28 -6 10 -11 9 -22 -5 -12 -17 -13 -17 -13 -2 0 9 -4 17 -10 17 -6 0
-10 -26 -10 -58 0 -48 4 -62 23 -80 13 -12 30 -22 38 -22 8 0 22 -9 31 -20 27
-30 62 -35 110 -12 24 11 51 22 61 26 10 3 16 10 12 15 -3 6 -13 7 -22 4 -11
-4 -14 -3 -9 5 4 7 1 12 -8 12 -8 0 -16 -10 -18 -22 -2 -17 -12 -24 -42 -30
-50 -11 -70 3 -54 38 12 26 23 30 33 14 10 -16 25 -12 25 6 0 11 -5 14 -16 10
-10 -4 -14 -1 -12 6 3 7 15 15 29 16 13 2 32 10 42 17 16 11 24 10 50 -5 l32
-19 28 40 c18 25 24 39 15 39 -10 0 -9 3 2 10 11 7 9 11 -12 19 -14 5 -29 15
-33 20 -9 15 8 14 24 -1 10 -11 12 -9 9 7 -2 14 -11 20 -31 20 -15 1 -27 -3
-27 -7 0 -4 -4 -8 -10 -8 -5 0 -10 9 -10 21 0 15 -5 19 -15 15 -8 -3 -15 -2
-15 3 0 5 -8 11 -17 14 -10 2 -25 7 -33 10 -8 3 -24 -4 -36 -16z"/>
<path d="M7555 2096 c-16 -7 -38 -11 -47 -8 -13 3 -18 -2 -18 -16 0 -12 -5
-32 -11 -46 -24 -52 60 -116 135 -102 43 8 66 35 73 83 5 35 2 42 -31 71 -40
35 -56 38 -101 18z"/>
</g>
</svg>
